<?xml version="1.0" encoding="UTF-8" standalone="no"?>
<svg width="32px" height="32px" viewBox="0 0 32 32" version="1.1" xmlns="http://www.w3.org/2000/svg" xmlns:xlink="http://www.w3.org/1999/xlink">
    <!-- Generator: Sketch 39 (31667) - http://www.bohemiancoding.com/sketch -->
    <title>Logo_White_32</title>
    <desc>Created with Sketch.</desc>
    <defs></defs>
    <g id="Page-1" stroke="none" stroke-width="1" fill="none" fill-rule="evenodd">
        <g id="Logo" transform="translate(-265.000000, -119.000000)">
            <g id="Logo_White_32" transform="translate(265.000000, 119.000000)">
                <rect id="Fill" fill="#FFFFFF" x="0" y="0" width="32" height="32"></rect>
                <g id="Font" transform="translate(7.017544, 6.035088)">
                    <path d="M1.69489392,1.25847047 C2.55711415,2.20692329 2.88956058,3.26921692 2.88956058,4.25506512 C2.88956058,5.43285422 2.43236312,6.45245754 1.719309,6.95547509 C1.31829966,7.23776059 0.788860321,7.2043364 0.533672564,6.94289965 C0.297214184,6.70065699 0.16309847,6.23834416 0.582168272,5.71381599 C1.13000254,5.02944739 2.308281,4.43376872 2.308281,3.14147693 C2.308281,2.61198478 2.15510146,1.94681027 1.69489392,1.25847047" id="Fill-4" fill="#000000"></path>
                    <polygon id="Fill-6" fill="#000000" points="14.6990346 12.4558727 17.805101 12.4558727 15.834503 10.8247059"></polygon>
                    <polygon id="Fill-8" fill="#000000" points="11.9456824 7.41550386 4.41847973 7.41550386 4.37600418 7.31450386 11.9496959 7.31450386"></polygon>
                    <path d="M11.450859,6.03564794 L10.2642192,7.38121987 L10.5936555,7.38121987 L8.44579739,10.8609761 C8.44579739,10.8609761 11.8445103,8.37401765 12.2040475,8.19630685 C12.5746216,8.01297019 13.4020587,7.82069836 13.4020587,7.82069836 L11.450859,6.03564794 Z" id="Fill-10" fill="#000000"></path>
                    <path d="M14.3649159,3.8280297 L15.3261342,2.48444336 L17.5081066,4.43264355 C17.5081066,4.43264355 16.7017401,4.65238279 16.3940432,4.80295712 C16.0990555,4.9469128 13.2294474,6.90801935 13.2294474,6.90801935 L14.7592361,3.8280297 L14.3649159,3.8280297 Z" id="Fill-12" fill="#000000"></path>
                    <polygon id="Fill-14" fill="#000000" points="9.60581471 3.78537248 9.60581471 1.57275716 10.0650189 0.882431764 7.70043509 0.11036602 7.70043509 3.78537248"></polygon>
                    <polygon id="Fill-16" fill="#000000" points="9.60581471 3.75694537 2.50671206 3.75694537 2.55152878 3.86444537 9.60581471 3.86444537"></polygon>
                    <polygon id="Fill-18" fill="#000000" points="8.96239373 12.3902818 0.0140995894 12.3902818 0.0582474057 12.4892818 8.96239373 12.4892818"></polygon>
                    <path d="M7.68956536,17.4657619 C7.68956536,17.7295152 7.47317417,17.9432977 7.20661501,17.9432977 L3.67913759,17.9432977 C4.9634377,18.108764 7.19858813,18.3665604 7.19858813,19.8534406 C8.48489496,19.8534406 9.54277029,18.8427724 9.54277029,17.3505974 L9.54277029,12.658966 C9.54277029,10.8212973 7.7414056,9.81592406 5.9922156,9.45818593 C7.14641344,9.89501695 7.68956536,10.8169952 7.68956536,12.0460788 L7.68956536,17.4657619 Z" id="Fill-20" fill="#000000"></path>
                    <polygon id="Fill-22" fill="#404040" points="15.8343692 10.8244742 15.9975824 11.7944377 14.6985663 12.4563029"></polygon>
                    <polygon id="Fill-24" fill="#404040" points="15.3268031 2.4852376 15.6261387 4.02738349 13.2294474 6.90782079 14.7592361 3.828493 14.3649159 3.828493"></polygon>
                    <polygon id="Fill-26" fill="#404040" points="11.450558 6.03564794 10.2635837 7.38188174 10.5933545 7.38188174 8.44583083 10.8606452 11.7151104 7.36864443"></polygon>
                    <polygon id="Fill-28" fill="#404040" points="7.7003682 0.110200554 8.67797477 1.34590286 8.67797477 3.78520702 7.7003682 3.78520702"></polygon>
                    <path d="M0.583104741,5.7137829 C0.410861366,5.92855815 0.332933781,6.13274356 0.31587667,6.31574929 L1.20719433,6.33428151 C2.84768705,4.83548779 2.93364151,2.86114393 1.69516148,1.25810645 C2.15503457,1.94677717 2.30821411,2.61195169 2.30821411,3.14210571 C2.30821411,4.43406656 1.1302701,5.02974523 0.583104741,5.7137829" id="Fill-30" fill="#404040"></path>
                    <path d="M7.68956536,12.0460788 L7.68956536,17.4657619 C7.68956536,17.7295152 7.47317417,17.9432977 7.20661501,17.9432977 L3.6804754,17.9432977 L3.67980649,17.9432977 C3.6804754,17.9436286 3.68114431,17.9436286 3.68181321,17.9436286 C5.20257171,17.9846642 7.06213124,18.2325327 7.58555043,18.663407 C8.1447561,18.663407 8.60362583,18.0710376 8.60362583,17.5541209 L8.60362583,12.2999041 C8.60362583,10.8663041 7.59324285,9.9208297 5.9922156,9.45818593 C7.14641344,9.89501695 7.68956536,10.8169952 7.68956536,12.0460788" id="Fill-32" fill="#404040"></path>
                    <path d="M14.9936543,17.0323726 C14.9936543,17.6968852 14.4488302,18.2356435 13.7772482,18.2356435 C13.1056663,18.2356435 12.5611766,17.6968852 12.5611766,17.0323726 C12.5611766,16.3678599 13.1056663,15.8287707 13.7772482,15.8287707 C14.4488302,15.8287707 14.9936543,16.3678599 14.9936543,17.0323726" id="Fill-34" fill="#CBCBCB"></path>
                </g>
            </g>
        </g>
    </g>
</svg>