<?xml version="1.0" encoding="UTF-8" standalone="no"?>
<svg width="14px" height="16px" viewBox="0 0 14 16" version="1.1" xmlns="http://www.w3.org/2000/svg" xmlns:xlink="http://www.w3.org/1999/xlink">
    <!-- Generator: Sketch 39.1 (31720) - http://www.bohemiancoding.com/sketch -->
    <title>AddArticle</title>
    <desc>Created with Sketch.</desc>
    <defs></defs>
    <g id="Page-1" stroke="none" stroke-width="1" fill="none" fill-rule="evenodd">
        <g id="SVG-Icon" transform="translate(-31.000000, -112.000000)" fill="#FFFFFF">
            <g id="AddArticle" transform="translate(25.000000, 108.000000)">
                <path d="M12.6067894,9.2543417 L17.5874566,9.2543417 L11.8203683,4 L11.8203683,8.46608559 C11.8203683,8.90150075 12.1724228,9.2543417 12.6067894,9.2543417 L12.6067894,9.2543417 Z M19.1602988,16.8543155 L18.3738777,16.8543155 L18.3738777,16.0678944 C18.3738777,15.6335278 18.0218232,15.2814732 17.5874566,15.2814732 C17.15309,15.2814732 16.8010355,15.6335278 16.8010355,16.0678944 L16.8010355,16.8543155 L16.0146143,16.8543155 C15.5802477,16.8543155 15.2281932,17.20637 15.2281932,17.6407366 C15.2281932,18.0751032 15.5802477,18.4271577 16.0146143,18.4271577 L16.8010355,18.4271577 L16.8010355,19.2135789 C16.8010355,19.6479455 17.15309,20 17.5874566,20 C18.0218232,20 18.3738777,19.6479455 18.3738777,19.2135789 L18.3738777,18.4271577 L19.1602988,18.4271577 C19.5946654,18.4271577 19.94672,18.0751032 19.94672,17.6407366 C19.94672,17.20637 19.5946654,16.8543155 19.1602988,16.8543155 L19.1602988,16.8543155 Z M14.4417721,17.6407366 C14.4417721,16.7720034 15.1458811,16.0678944 16.0146143,16.0678944 C16.0146143,15.1991612 16.7187234,14.4950521 17.5874566,14.4950521 L17.5874566,10.0423357 L12.6067894,10.0423357 C11.7380562,10.0423357 11.0339472,9.33665378 11.0339472,8.46608559 L11.0339472,4 L8.67468379,4 L8.67468379,4.00943705 L6.83970116,4.00943705 C6.40533456,4.00943705 6.05328003,4.36149158 6.05328003,4.79585818 L6.05328003,18.4271577 C6.05328003,18.8615243 6.40533456,19.2135789 6.83970116,19.2135789 L16.0146143,19.2135789 L16.0146143,19.2135789 C15.1458811,19.2135789 14.4417721,18.5094698 14.4417721,17.6407366 L14.4417721,17.6407366 Z" id="Add"></path>
            </g>
        </g>
    </g>
</svg>