<?xml version="1.0" encoding="UTF-8" standalone="no"?>
<svg width="24px" height="20px" viewBox="0 0 24 20" version="1.1" xmlns="http://www.w3.org/2000/svg" xmlns:xlink="http://www.w3.org/1999/xlink">
    <!-- Generator: Sketch 39.1 (31720) - http://www.bohemiancoding.com/sketch -->
    <title>AddPicture</title>
    <desc>Created with Sketch.</desc>
    <defs></defs>
    <g id="Page-1" stroke="none" stroke-width="1" fill="none" fill-rule="evenodd">
        <g id="SVG-Icon" transform="translate(-297.000000, -259.000000)" fill="#FFFFFF">
            <g id="AddPicture" transform="translate(297.000000, 257.000000)">
                <path d="M1.69998777,14.4127315 L1.69998777,2.29998779 L0.299987793,2.29998779 L0.299987793,21.6999874 L1.69998777,21.6999874 L1.69998777,16.3012132 L8.33911133,10.4957123 L19.0532227,20.2635345 L21.0606689,20.2635345 L8.3548584,8.61643982 L1.69998777,14.4127315 Z M22.2999878,2.29998779 L22.2999878,21.6999874 L23.6999878,21.6999874 L23.6999878,2.29998779 L22.3000002,2.29998779 L1.70001221,2.29998779 L1.70001221,3.69998777 L22.3000126,3.69998777 L22.3000126,2.29998779 Z M1.70001221,20.2999878 L22.3000126,20.2999878 L22.3000126,21.6999878 L1.70001221,21.6999878 L1.70001221,20.2999878 Z M16,8.49998474 C16,9.32841187 16.6715729,9.99998474 17.5,9.99998474 C18.3284271,9.99998474 19,9.32841187 19,8.49998474 C19,7.67155762 18.3284271,6.99998474 17.5,6.99998474 C16.6715729,6.99998474 16,7.67155762 16,8.49998474 Z" id="Combined-Shape"></path>
            </g>
        </g>
    </g>
</svg>