<?xml version="1.0" encoding="UTF-8" standalone="no"?>
<svg width="14px" height="16px" viewBox="0 0 14 16" version="1.1" xmlns="http://www.w3.org/2000/svg" xmlns:xlink="http://www.w3.org/1999/xlink">
    <!-- Generator: Sketch 39.1 (31720) - http://www.bohemiancoding.com/sketch -->
    <title>Apple</title>
    <desc>Created with Sketch.</desc>
    <defs></defs>
    <g id="Page-1" stroke="none" stroke-width="1" fill="none" fill-rule="evenodd">
        <g id="SVG-Icon" transform="translate(-98.000000, -78.000000)" fill="#FFFFFF">
            <g id="Apple" transform="translate(93.000000, 74.000000)">
                <path d="M17.6491481,9.45507787 C16.7062471,8.07976937 15.2375023,7.89136367 14.7140725,7.86958249 C13.4640922,7.7434266 12.2750576,8.60314285 11.6406466,8.60314285 C11.0078658,8.60314285 10.028943,7.88823868 8.99227229,7.90701988 C7.62983739,7.92720732 6.37358702,8.69667383 5.67205438,9.91295154 C4.25648019,12.3613507 5.30954725,15.9885901 6.68922498,17.9743031 C7.36338854,18.9462065 8.16728093,20.0379846 9.22276199,19.9989847 C10.2391802,19.9585473 10.6235387,19.3433928 11.85242,19.3433928 C13.0813013,19.3433928 13.4266596,19.9989847 14.5023618,19.9788597 C15.5960906,19.9586098 16.2890645,18.9882689 16.9585568,18.013303 C17.7327602,16.8856812 18.0515332,15.7939657 18.0703122,15.7379033 C18.0460155,15.7268721 15.9374988,14.9217182 15.9163684,12.501444 C15.8960846,10.4751374 17.5741575,9.50335898 17.6491481,9.45507787 L17.6491481,9.45507787 Z M14.7494808,4 C13.9435035,4.03278746 12.9665235,4.53639416 12.388289,5.21310491 C11.8693936,5.81341586 11.4152544,6.77154192 11.5369385,7.69149936 C12.4366996,7.7616733 13.3551549,7.23466486 13.9153214,6.55795411 C14.4748304,5.87971036 14.8525021,4.93872889 14.7494808,4 L14.7494808,4 Z" id="Apple-Logo"></path>
            </g>
        </g>
    </g>
</svg>