<?xml version="1.0" encoding="UTF-8" standalone="no"?>
<svg width="15px" height="13px" viewBox="0 0 15 13" version="1.1" xmlns="http://www.w3.org/2000/svg" xmlns:xlink="http://www.w3.org/1999/xlink">
    <!-- Generator: Sketch 39.1 (31720) - http://www.bohemiancoding.com/sketch -->
    <title>Backward</title>
    <desc>Created with Sketch.</desc>
    <defs></defs>
    <g id="Page-1" stroke="none" stroke-width="1" fill="none" fill-rule="evenodd">
        <g id="SVG-Icon" transform="translate(-64.000000, -297.000000)" fill="#FFFFFF">
            <g id="Backward" transform="translate(59.000000, 291.000000)">
                <path d="M5.13183816,11.715345 C4.92434905,12.0386958 4.96225891,12.4688023 5.24212335,12.7486667 L10.5408284,18.0473717 C10.8647557,18.3712991 11.3905177,18.368814 11.7163306,18.0430011 C12.044415,17.7149167 12.0441003,17.1908979 11.7207012,16.8674989 L7.83113477,12.9779324 L19.1636535,12.9779324 C19.6329103,12.9779324 20,12.6044053 20,12.1436363 C20,11.6796549 19.6255549,11.3093402 19.1636535,11.3093402 L7.83113576,11.3093402 L11.7206122,7.41986372 C12.0438165,7.09665939 12.0421435,6.57008537 11.7163306,6.24427248 C11.3882462,5.91618808 10.8608247,5.91990549 10.5332282,6.247502 L5.29202637,11.4887038 C5.22057068,11.5601595 5.16737708,11.6367879 5.13183816,11.715345 L5.13183816,11.715345 Z" id="Combined-Shape" transform="translate(12.500000, 12.144423) scale(-1, 1) translate(-12.500000, -12.144423) "></path>
            </g>
        </g>
    </g>
</svg>