<?xml version="1.0" encoding="UTF-8" standalone="no"?>
<svg width="16px" height="14px" viewBox="0 0 16 14" version="1.1" xmlns="http://www.w3.org/2000/svg" xmlns:xlink="http://www.w3.org/1999/xlink">
    <!-- Generator: Sketch 39.1 (31720) - http://www.bohemiancoding.com/sketch -->
    <title>Bird</title>
    <desc>Created with Sketch.</desc>
    <defs></defs>
    <g id="Page-1" stroke="none" stroke-width="1" fill="none" fill-rule="evenodd">
        <g id="SVG-Icon" transform="translate(-29.000000, -182.000000)" fill="#FFFFFF">
            <g id="Bird" transform="translate(25.000000, 177.000000)">
                <path d="M18.5380006,8.63991538 C18.4621522,9.93247117 17.6001514,11.1074659 15.9853082,11.6460211 L16.2884335,10.906569 C17.6868266,13.6539523 16.229727,15.286107 13.2292728,15.8965441 C12.1309748,16.1199908 10.9990196,16.183033 10.0631402,16.160283 C9.97069346,16.1576337 9.97069346,16.1576337 9.94708764,16.1565896 L10.3459255,16.0003479 L8.83466596,17.5304716 C8.63001062,17.7376815 8.29612784,17.7397524 8.08891791,17.535097 C7.88170798,17.3304417 7.87963708,16.9965589 8.08429242,16.789349 L9.59555198,15.2592253 C9.70040549,15.153063 9.84532639,15.0962913 9.99438985,15.1029836 C10.0077423,15.1035987 10.0077423,15.1035987 10.0887701,15.1059272 C10.9523409,15.1269194 12.0121314,15.0678964 13.01901,14.8630487 C15.4355361,14.3714108 16.348222,13.3490752 15.3485149,11.384979 C15.2022706,11.0976568 15.3458008,10.7475252 15.6516403,10.6455268 C17.4001966,10.0623779 17.89331,8.59208846 17.1632285,7.23927967 C16.4471008,5.91232676 15.0480561,5.60012296 13.7550829,6.83308314 C13.4875213,7.07777548 11.8600412,8.71637924 9.35982056,11.2522494 C9.34557351,11.2666997 9.34557351,11.2666997 9.33132661,11.2811502 C8.36073243,12.2656196 7.3225346,13.3204502 6.28550826,14.3752867 C5.92254454,14.744484 5.69794922,14.9730364 5.2834357,15.3949682 C4.97263492,15.7114061 4.97263492,15.7114061 4.90363841,15.7816873 C4.69961005,15.9895146 4.36573505,15.9925942 4.15790774,15.7885659 C3.95008044,15.5845375 3.94700079,15.2506625 4.15102916,15.0428352 C4.22012813,14.9724496 4.22012813,14.9724496 4.53105136,14.6558871 C4.94569941,14.2338183 5.17035593,14.0052037 5.53342371,13.6359005 C6.5707731,12.5807354 7.60930587,11.5255645 8.5802904,10.5406992 C8.59454404,10.5262419 8.59454404,10.5262419 8.60879787,10.5117847 C11.1493384,7.93501973 12.7539383,6.3194525 13.0352592,6.06233333 C14.8485998,4.33293475 17.0594469,4.82629632 18.0913607,6.73838683 C18.1586281,6.86303028 18.2183439,6.98893224 18.2705385,7.11561886 L20,7.94015479 L18.5380006,8.63991538 Z M8.55434785,13.9546207 C8.70377756,14.0071987 8.95586492,14.0822836 9.28188056,14.156581 C9.95721974,14.3104876 10.6433844,14.3871023 11.2964128,14.3428206 C11.5957179,14.3225247 11.8808138,14.2766628 12.1494094,14.202228 C12.7144074,14.0456524 13.2385223,13.791455 13.7184204,13.4672826 C14.2158755,13.1312504 14.572076,12.7929856 14.7722703,12.5544728 C14.9595067,12.3313982 14.9304541,11.9987754 14.7073795,11.811539 C14.4843049,11.6243026 14.151682,11.6533552 13.9644456,11.8764298 C13.8226687,12.0453437 13.535325,12.3182189 13.128061,12.5933267 C12.7377385,12.8569906 12.3154731,13.0617906 11.8677492,13.1858666 C11.6713845,13.2402843 11.4562408,13.2748934 11.2250598,13.2905697 C10.688409,13.3269599 10.0995017,13.2612046 9.51622576,13.1282788 C9.23259078,13.0636397 9.01821766,12.9997881 8.90440376,12.9597418 C8.62967555,12.8630766 8.32860164,13.0074251 8.23193637,13.2821533 C8.1352711,13.5568815 8.27961964,13.8579554 8.55434785,13.9546207 Z M5.09820598,18.5959361 L8.03266363,15.6614784 C8.23860023,15.4555418 8.23860023,15.1216526 8.03266363,14.915716 C7.82672703,14.7097794 7.49283783,14.7097794 7.28690124,14.915716 L4.35244359,17.8501737 C4.14650699,18.0561103 4.14650699,18.3899995 4.35244359,18.5959361 C4.55838019,18.8018727 4.89226939,18.8018727 5.09820598,18.5959361 Z M15.4458729,8.74929587 C15.8099208,8.74929587 16.1050399,8.45417673 16.1050399,8.09012881 C16.1050399,7.7260809 15.8099208,7.43096176 15.4458729,7.43096176 C15.081825,7.43096176 14.7867058,7.7260809 14.7867058,8.09012881 C14.7867058,8.45417673 15.081825,8.74929587 15.4458729,8.74929587 Z" id="Combined-Shape"></path>
            </g>
        </g>
    </g>
</svg>