<?xml version="1.0" encoding="UTF-8" standalone="no"?>
<svg width="11px" height="14px" viewBox="0 0 11 14" version="1.1" xmlns="http://www.w3.org/2000/svg" xmlns:xlink="http://www.w3.org/1999/xlink">
    <!-- Generator: Sketch 39.1 (31720) - http://www.bohemiancoding.com/sketch -->
    <title>Bold</title>
    <desc>Created with Sketch.</desc>
    <defs></defs>
    <g id="Page-1" stroke="none" stroke-width="1" fill="none" fill-rule="evenodd">
        <g id="SVG-Icon" transform="translate(-31.000000, -262.000000)" fill="#FFFFFF">
            <g id="Bold" transform="translate(25.000000, 257.000000)">
                <path d="M6,5 L11.4576271,5 C11.9849367,5 12.5056471,5.06261708 13.019774,5.18785311 C13.5339009,5.31308914 13.9919942,5.51741855 14.3940678,5.80084746 C14.7961414,6.08427637 15.1224093,6.45009192 15.3728814,6.89830508 C15.6233534,7.34651825 15.7485876,7.88700249 15.7485876,8.51977401 C15.7485876,9.31073842 15.5244844,9.96327427 15.0762712,10.4774011 C14.628058,10.991528 14.0414349,11.3606392 13.3163842,11.5847458 L13.3163842,11.6242938 C13.7514146,11.6770247 14.1567778,11.7989633 14.5324859,11.990113 C14.908194,12.1812627 15.2278706,12.4251398 15.4915254,12.7217514 C15.7551802,13.0183631 15.9628053,13.3611092 16.1144068,13.75 C16.2660083,14.1388908 16.3418079,14.5574366 16.3418079,15.0056497 C16.3418079,15.7702486 16.1902087,16.4063063 15.8870056,16.9138418 C15.5838026,17.4213773 15.1850307,17.8300361 14.690678,18.1398305 C14.1963252,18.4496249 13.6294759,18.6704325 12.990113,18.8022599 C12.3507501,18.9340873 11.7015099,19 11.0423729,19 L6,19 L6,5 Z M8.49152542,10.6949153 L10.7655367,10.6949153 C11.5960494,10.6949153 12.2189245,10.5334291 12.6341808,10.210452 C13.0494371,9.88747484 13.2570621,9.46233785 13.2570621,8.93502825 C13.2570621,8.3286222 13.0428458,7.87712013 12.6144068,7.58050847 C12.1859677,7.28389682 11.4971799,7.13559322 10.5480226,7.13559322 L8.49152542,7.13559322 L8.49152542,10.6949153 Z M8.49152542,16.8644068 L10.7853107,16.8644068 C11.1016965,16.8644068 11.441147,16.844633 11.8036723,16.8050847 C12.1661977,16.7655365 12.4990569,16.6732587 12.8022599,16.5282486 C13.1054629,16.3832384 13.3559312,16.1756134 13.5536723,15.9053672 C13.7514134,15.6351211 13.8502825,15.2693055 13.8502825,14.8079096 C13.8502825,14.0696762 13.6097011,13.555557 13.1285311,13.2655367 C12.6473611,12.9755164 11.8992518,12.8305085 10.8841808,12.8305085 L8.49152542,12.8305085 L8.49152542,16.8644068 Z" id="B"></path>
            </g>
        </g>
    </g>
</svg>