<?xml version="1.0" encoding="UTF-8" standalone="no"?>
<svg width="12px" height="15px" viewBox="0 0 12 15" version="1.1" xmlns="http://www.w3.org/2000/svg" xmlns:xlink="http://www.w3.org/1999/xlink">
    <!-- Generator: Sketch 39.1 (31720) - http://www.bohemiancoding.com/sketch -->
    <title>DeleteImage</title>
    <desc>Created with Sketch.</desc>
    <defs></defs>
    <g id="Page-1" stroke="none" stroke-width="1" fill="none" fill-rule="evenodd">
        <g id="SVG-Icon" transform="translate(-31.000000, -222.000000)" fill="#FFFFFF">
            <g id="DeleteImage" transform="translate(25.000000, 217.000000)">
                <path d="M13.7057145,6.12684504 L12.8771431,5 L10.7228573,5 L9.89428584,6.12684504 L6,6.12684504 L6,7.28684508 L17.6000004,7.28684508 L17.6000004,6.12684504 L13.7057145,6.12684504 Z M8.48571437,19.218274 C7.57428577,19.218274 6.82857146,18.4725597 6.82857146,17.5611311 L6.82857146,8.61255941 L16.7714289,8.61255941 L16.7714289,17.5611311 C16.7714289,18.4725597 16.0257146,19.218274 15.114286,19.218274 L8.48571437,19.218274 Z M15.114286,18.0251312 C15.36676,18.0251312 15.5782861,17.8136051 15.5782861,17.5611311 L15.5782862,9.80570224 L16.7714289,9.80570224 L6.82857146,9.80570224 L8.02171428,9.80570224 L8.02171428,17.5611311 C8.02171428,17.8136051 8.23324035,18.0251312 8.48571437,18.0251312 L15.114286,18.0251312 Z" id="Delete"></path>
            </g>
        </g>
    </g>
</svg>