<?xml version="1.0" encoding="UTF-8" standalone="no"?>
<svg width="14px" height="17px" viewBox="0 0 14 17" version="1.1" xmlns="http://www.w3.org/2000/svg" xmlns:xlink="http://www.w3.org/1999/xlink">
    <!-- Generator: Sketch 39.1 (31720) - http://www.bohemiancoding.com/sketch -->
    <title>Delete</title>
    <desc>Created with Sketch.</desc>
    <defs></defs>
    <g id="Page-1" stroke="none" stroke-width="1" fill="none" fill-rule="evenodd">
        <g id="SVG-Icon" transform="translate(-132.000000, -111.000000)" fill="#FFFFFF">
            <g id="Delete" transform="translate(127.000000, 108.000000)">
                <path d="M5.33333333,6.1010892 C5.33333333,5.63212369 5.69444444,5.273503 6.16666667,5.273503 L10.3333333,5.273503 L10.3333333,4.44591679 C10.3333333,3.97695127 10.6944444,3.61833058 11.1666667,3.61833058 L12.8333333,3.61833058 C13.3055556,3.61833058 13.6666667,3.97695127 13.6666667,4.44591679 L13.6666667,5.273503 L17.8333333,5.273503 C18.3055556,5.273503 18.6666667,5.63212369 18.6666667,6.1010892 L18.6666667,6.92867541 L5.33333333,6.92867541 L5.33333333,6.1010892 L5.33333333,6.1010892 Z M17.8333333,8.58384782 L17.8333333,10.2390202 L17.8333333,18.7907444 C17.8333333,19.2597099 17.4722222,19.6183306 17,19.6183306 L7,19.6183306 C6.52777778,19.6183306 6.16666667,19.2597099 6.16666667,18.7907444 L6.16666667,10.2390202 L6.16666667,8.58384782 L6.16666667,7.75626162 L17.8333333,7.75626162 L17.8333333,8.58384782 L17.8333333,8.58384782 Z M9.5,10.2390202 C9.5,9.77005472 9.13888889,9.41143403 8.66666667,9.41143403 C8.19444444,9.41143403 7.83333333,9.77005472 7.83333333,10.2390202 L7.83333333,17.135572 C7.83333333,17.6045375 8.19444444,17.9631582 8.66666667,17.9631582 C9.13888889,17.9631582 9.5,17.6045375 9.5,17.135572 L9.5,10.2390202 L9.5,10.2390202 Z M12.8333333,10.2390202 C12.8333333,9.77005472 12.4722222,9.41143403 12,9.41143403 C11.5277778,9.41143403 11.1666667,9.77005472 11.1666667,10.2390202 L11.1666667,17.135572 C11.1666667,17.6045375 11.5277778,17.9631582 12,17.9631582 C12.4722222,17.9631582 12.8333333,17.6045375 12.8333333,17.135572 L12.8333333,10.2390202 L12.8333333,10.2390202 Z M16.1666667,10.2390202 C16.1666667,9.77005472 15.8055556,9.41143403 15.3333333,9.41143403 C14.8611111,9.41143403 14.5,9.77005472 14.5,10.2390202 L14.5,17.135572 C14.5,17.6045375 14.8611111,17.9631582 15.3333333,17.9631582 C15.8055556,17.9631582 16.1666667,17.6045375 16.1666667,17.135572 L16.1666667,10.2390202 L16.1666667,10.2390202 Z"></path>
            </g>
        </g>
    </g>
</svg>