<?xml version="1.0" encoding="UTF-8" standalone="no"?>
<svg width="20px" height="20px" viewBox="0 0 20 20" version="1.1" xmlns="http://www.w3.org/2000/svg" xmlns:xlink="http://www.w3.org/1999/xlink">
    <!-- Generator: Sketch 39.1 (31720) - http://www.bohemiancoding.com/sketch -->
    <title>Dial</title>
    <desc>Created with Sketch.</desc>
    <defs></defs>
    <g id="Page-1" stroke="none" stroke-width="1" fill="none" fill-rule="evenodd">
        <g id="SVG-Icon" transform="translate(-129.000000, -42.000000)" fill="#FFFFFF">
            <g id="Dial" transform="translate(127.000000, 40.000000)">
                <path d="M12,21.5 L12,21.5 C17.2467051,21.5 21.5,17.2467051 21.5,12 C21.5,6.75329488 17.2467051,2.5 12,2.5 C6.75329488,2.5 2.5,6.75329488 2.5,12 C2.5,17.2467051 6.75329488,21.5 12,21.5 L12,21.5 Z M12,22 C6.4771525,22 2,17.5228475 2,12 C2,6.4771525 6.4771525,2 12,2 C17.5228475,2 22,6.4771525 22,12 C22,17.5228475 17.5228475,22 12,22 Z M16.4807769,14.4737245 C16.4552778,14.3969919 16.293339,14.2840113 15.9949605,14.1349398 C15.9141481,14.0880214 15.7989707,14.0241561 15.6499776,13.9431867 C15.5007491,13.8622173 15.3654078,13.787603 15.2440322,13.7193439 C15.1224996,13.6512418 15.0084991,13.5851011 14.9020306,13.5213141 C14.8850051,13.5085254 14.8317316,13.4712575 14.7422102,13.409432 C14.6526888,13.347685 14.5771331,13.3018651 14.5152292,13.2719723 C14.4534821,13.242158 14.3927551,13.2272509 14.333048,13.2272509 C14.2478419,13.2272509 14.1413734,13.2879779 14.0135641,13.409432 C13.8857549,13.5308861 13.7685376,13.6629321 13.6620691,13.8058054 C13.5555221,13.9486003 13.4426201,14.0806463 13.3233628,14.2021004 C13.2040271,14.323633 13.1059537,14.3842816 13.0292995,14.3842816 C12.9909332,14.3842816 12.9429165,14.3736112 12.8854063,14.3524273 C12.8279745,14.331165 12.784273,14.3128841 12.7543017,14.2981339 C12.7245659,14.2831483 12.6734893,14.2534124 12.6009934,14.208534 C12.5284191,14.1638126 12.4880129,14.139255 12.4795393,14.1349398 C11.895728,13.8110622 11.3950045,13.4402663 10.9773687,13.022709 C10.5598115,12.6050733 10.1890156,12.1043497 9.86513799,11.5205384 C9.86090122,11.5119864 9.83634364,11.4715017 9.79162217,11.3990843 C9.74682224,11.3265885 9.71700793,11.2755119 9.70210078,11.2456191 C9.68719362,11.2158048 9.66906966,11.1721033 9.64780735,11.114593 C9.62654503,11.0570828 9.61587465,11.0091445 9.61587465,10.9707782 C9.61587465,10.894124 9.67660169,10.7960507 9.79805579,10.6767149 C9.91950988,10.5574577 10.0516344,10.4444771 10.1943508,10.3380087 C10.3371456,10.2315402 10.4691916,10.1143229 10.5906457,9.98651362 C10.7120998,9.85862591 10.7728269,9.75215744 10.7728269,9.66695127 C10.7728269,9.60732265 10.7579197,9.54651714 10.7281054,9.48477013 C10.6982911,9.42286621 10.6524712,9.34731046 10.5906457,9.25778907 C10.5288203,9.16826767 10.4915524,9.11507267 10.4787636,9.09796866 C10.4148982,8.99150019 10.3489144,8.87749967 10.2806553,8.75604558 C10.2123963,8.63459149 10.1378605,8.4992502 10.0568911,8.35010019 C9.97592169,8.20102863 9.9120563,8.08592969 9.86513799,8.00496029 C9.71598797,7.70673872 9.60308588,7.54472147 9.52635325,7.51922239 C9.49653894,7.50643361 9.45173901,7.5 9.39211039,7.5 C9.27701145,7.5 9.12684147,7.52126231 8.94144353,7.56394385 C8.75604558,7.60654694 8.61011237,7.6512684 8.50356543,7.69818672 C8.29047156,7.78762965 8.06466738,8.04756338 7.82599596,8.47790943 C7.60866532,8.87844118 7.5,9.27481461 7.5,9.66687281 C7.5,9.78181483 7.50745358,9.89369696 7.52236073,10.0024407 C7.53726789,10.1111061 7.56394385,10.2336586 7.60231017,10.3700198 C7.64067648,10.5063811 7.67158921,10.6076713 7.69496991,10.6736551 C7.71835061,10.7396388 7.76205211,10.8578761 7.82599596,11.0283669 C7.88986136,11.1988577 7.92822767,11.3032078 7.94101644,11.3415741 C8.09016646,11.7592098 8.26701241,12.1320457 8.47155428,12.4602385 C8.80806371,13.0056835 9.26728257,13.5693309 9.84897549,14.1510238 C10.4306684,14.7327167 10.9942374,15.1919356 11.5397608,15.5286019 C11.8678752,15.7330653 12.2408679,15.9099897 12.6584252,16.0592182 C12.6967915,16.0719285 12.8012201,16.1102948 12.9716324,16.1743172 C13.1420447,16.2381826 13.2603605,16.2818841 13.3263442,16.3053432 C13.392328,16.3288024 13.4936182,16.3597151 13.629901,16.3980814 C13.7664192,16.4364477 13.8888932,16.4631237 13.9975586,16.4781093 C14.1062239,16.4928595 14.218106,16.50047 14.3331265,16.50047 C14.7251062,16.50047 15.1214797,16.3917263 15.5220899,16.1744741 C15.9523575,15.9358027 16.2122912,15.70992 16.3018126,15.4967477 C16.3488093,15.3903577 16.3934524,15.244346 16.4360554,15.0589481 C16.478737,14.8736286 16.4999993,14.7234586 16.4999993,14.6083597 C16.5000777,14.5484957 16.4936441,14.5037742 16.4807769,14.4737245 Z" id="Phone"></path>
            </g>
        </g>
    </g>
</svg>