<?xml version="1.0" encoding="UTF-8" standalone="no"?>
<svg width="23px" height="18px" viewBox="0 0 23 18" version="1.1" xmlns="http://www.w3.org/2000/svg" xmlns:xlink="http://www.w3.org/1999/xlink">
    <!-- Generator: Sketch 39.1 (31720) - http://www.bohemiancoding.com/sketch -->
    <title>Divide</title>
    <desc>Created with Sketch.</desc>
    <defs></defs>
    <g id="Page-1" stroke="none" stroke-width="1" fill="none" fill-rule="evenodd">
        <g id="SVG-Icon" transform="translate(-263.000000, -260.000000)" fill="#FFFFFF">
            <g id="Divide" transform="translate(263.000000, 257.000000)">
                <path d="M2.8999939,3 L20.8999939,3 L20.8999939,4.5 L2.8999939,4.5 L2.8999939,3 Z M0.899993896,11 L3.8999939,11 L3.8999939,12.5 L0.899993896,12.5 L0.899993896,11 Z M7.3999939,11 L10.3999939,11 L10.3999939,12.5 L7.3999939,12.5 L7.3999939,11 Z M13.3999939,11 L16.3999939,11 L16.3999939,12.5 L13.3999939,12.5 L13.3999939,11 Z M19.8999939,11 L22.8999939,11 L22.8999939,12.5 L19.8999939,12.5 L19.8999939,11 Z M2.8999939,19 L20.8999939,19 L20.8999939,20.5 L2.8999939,20.5 L2.8999939,19 Z" id="Combined-Shape"></path>
            </g>
        </g>
    </g>
</svg>