<?xml version="1.0" encoding="UTF-8" standalone="no"?>
<svg width="16px" height="16px" viewBox="0 0 16 16" version="1.1" xmlns="http://www.w3.org/2000/svg" xmlns:xlink="http://www.w3.org/1999/xlink">
    <!-- Generator: Sketch 39.1 (31720) - http://www.bohemiancoding.com/sketch -->
    <title>Draft</title>
    <desc>Created with Sketch.</desc>
    <defs></defs>
    <g id="Page-1" stroke="none" stroke-width="1" fill="none" fill-rule="evenodd">
        <g id="SVG-Icon" transform="translate(-200.000000, -112.000000)" fill="#FFFFFF">
            <g id="Draft" transform="translate(196.000000, 108.000000)">
                <path d="M19.975039,18.7269891 C19.975039,19.1513261 19.650546,19.475819 19.226209,19.475819 L4.74882995,19.475819 C4.32449298,19.475819 4,19.1513261 4,18.7269891 L4,4.74882995 C4,4.32449298 4.32449298,4 4.74882995,4 L5.49765991,4 L6.24648986,4 L6.99531981,4 L6.99531981,4.74882995 L6.99531981,4.99843994 L6.99531981,4.99843994 L6.99531981,7.74414977 L6.99531981,7.74414977 L6.99531981,8.49297972 L6.99531981,9.99063963 C6.99531981,10.8143526 7.64430577,11.4633385 8.46801872,11.4882995 L15.0327613,11.4882995 C15.8315133,11.4633385 16.5054602,10.8143526 16.5054602,9.99063963 L16.5054602,8.49297972 L16.5054602,7.74414977 L16.5054602,7.74414977 L16.5054602,5.49765991 L16.5054602,4.99843994 L16.5054602,4.99843994 L16.5054602,4.74882995 L16.5054602,4 L16.7550702,4 L17.0046802,4 L17.0046802,4 C17.2043682,4 17.4040562,4.074883 17.5288612,4.22464899 L17.5288612,4.22464899 L19.775351,6.47113885 L19.775351,6.47113885 C19.900156,6.59594384 20,6.79563183 20,6.99531981 L20,18.7269891 L19.975039,18.7269891 Z M15.7316693,9.99063963 C15.7316693,10.4149766 15.4071763,10.7394696 14.9828393,10.7394696 L13.9843994,10.7394696 L13.9843994,10.7394696 L9.49141966,10.7394696 L9.49141966,10.7394696 L8.49297972,10.7394696 C8.06864275,10.7394696 7.74414977,10.4149766 7.74414977,9.99063963 L7.74414977,8.49297972 L7.74414977,8.49297972 L7.74414977,4 L15.7316693,4 L15.7316693,8.49297972 L15.7316693,8.49297972 L15.7316693,9.99063963 L15.7316693,9.99063963 Z M14.2340094,4.99843994 L11.9875195,4.99843994 L11.9875195,9.74102964 L14.2340094,9.74102964 L14.2340094,4.99843994 L14.2340094,4.99843994 Z" id="Disk"></path>
            </g>
        </g>
    </g>
</svg>