<?xml version="1.0" encoding="UTF-8" standalone="no"?>
<svg width="24px" height="14px" viewBox="0 0 24 14" version="1.1" xmlns="http://www.w3.org/2000/svg" xmlns:xlink="http://www.w3.org/1999/xlink">
    <!-- Generator: Sketch 39.1 (31720) - http://www.bohemiancoding.com/sketch -->
    <title>H2</title>
    <desc>Created with Sketch.</desc>
    <defs></defs>
    <g id="Page-1" stroke="none" stroke-width="1" fill="none" fill-rule="evenodd">
        <g id="SVG-Icon" transform="translate(-93.000000, -262.000000)" fill="#FFFFFF">
            <g id="H2" transform="translate(93.000000, 257.000000)">
                <path d="M0.5,5.22917772 L2.10424403,5.22917772 L2.10424403,10.9586207 L9.32334216,10.9586207 L9.32334216,5.22917772 L10.9275862,5.22917772 L10.9275862,18.7506631 L9.32334216,18.7506631 L9.32334216,12.4482759 L2.10424403,12.4482759 L2.10424403,18.7506631 L0.5,18.7506631 L0.5,5.22917772 Z M17.7774536,10.9586207 L18.2740053,10.9586207 C18.6050414,10.9586207 18.9519876,10.9331567 19.3148541,10.8822281 C19.6777207,10.8312995 20.0087518,10.7230777 20.3079576,10.5575597 C20.6071633,10.3920416 20.8554367,10.1533172 21.0527851,9.8413793 C21.2501336,9.52944141 21.3488064,9.11883543 21.3488064,8.60954907 C21.3488064,7.92201247 21.1355459,7.37772084 20.7090186,6.97665782 C20.2824912,6.57559481 19.7254676,6.37506631 19.037931,6.37506631 C18.4649839,6.37506631 17.9684371,6.50238599 17.5482759,6.75702918 C17.1281146,7.01167236 16.7970834,7.38726542 16.5551724,7.88381963 L15.0082228,7.29177719 C15.339259,6.52784764 15.8580867,5.95490907 16.5647215,5.5729443 C17.2713563,5.19097952 18.0575554,5 18.9233422,5 C19.4580929,5 19.9705546,5.07639181 20.4607427,5.22917772 C20.9509308,5.38196363 21.3806348,5.60477307 21.7498674,5.89761273 C22.1191,6.19045239 22.4119353,6.55649648 22.628382,6.99575597 C22.8448287,7.43501546 22.9530504,7.94747717 22.9530504,8.53315649 C22.9530504,9.24615741 22.7397899,9.88593881 22.3132626,10.4525199 C21.8867353,11.019101 21.3297117,11.410609 20.6421751,11.6270557 L20.6421751,11.665252 C21.0750685,11.7416449 21.4602105,11.8816966 21.7976127,12.0854111 C22.135015,12.2891257 22.4246672,12.540582 22.6665783,12.8397878 C22.9084893,13.1389935 23.0931028,13.4795737 23.2204244,13.8615385 C23.347746,14.2435032 23.4114058,14.6445602 23.4114058,15.0647215 C23.4114058,15.7140616 23.2904521,16.2806342 23.0485411,16.7644562 C22.8066301,17.2482783 22.4819649,17.6557012 22.0745358,17.9867374 C21.6671067,18.3177735 21.1928409,18.5660469 20.6517241,18.731565 C20.1106074,18.897083 19.5408518,18.9798408 18.9424403,18.9798408 C17.9111354,18.9798408 17.0135317,18.7570314 16.2496021,18.3114058 C15.4856726,17.8657803 14.931832,17.1400581 14.5880637,16.1342175 L16.2114058,15.5994695 C16.4405847,16.3252026 16.7652499,16.8408473 17.1854111,17.1464191 C17.6055724,17.4519909 18.1912429,17.6047745 18.9424403,17.6047745 C19.3244051,17.6047745 19.6809002,17.5411147 20.0119363,17.4137931 C20.3429725,17.2864715 20.6326248,17.105041 20.8809019,16.869496 C21.129179,16.6339511 21.3265245,16.3538478 21.4729443,16.0291777 C21.6193641,15.7045076 21.6925729,15.3448295 21.6925729,14.9501326 C21.6925729,14.4535784 21.5939002,14.0366065 21.3965517,13.6992042 C21.1992033,13.361802 20.9381979,13.0944307 20.6135279,12.8970822 C20.2888578,12.6997338 19.9228137,12.5564991 19.5153846,12.467374 C19.1079555,12.3782489 18.6941666,12.333687 18.2740053,12.333687 L17.7774536,12.333687 L17.7774536,10.9586207 Z" id="H3"></path>
            </g>
        </g>
    </g>
</svg>