<?xml version="1.0" encoding="UTF-8" standalone="no"?>
<svg width="18px" height="12px" viewBox="0 0 18 12" version="1.1" xmlns="http://www.w3.org/2000/svg" xmlns:xlink="http://www.w3.org/1999/xlink">
    <!-- Generator: Sketch 39.1 (31720) - http://www.bohemiancoding.com/sketch -->
    <title>Mail</title>
    <desc>Created with Sketch.</desc>
    <defs></defs>
    <g id="Page-1" stroke="none" stroke-width="1" fill="none" fill-rule="evenodd">
        <g id="SVG-Icon" transform="translate(-130.000000, -80.000000)" fill="#FFFFFF">
            <g id="Mail" transform="translate(127.000000, 74.000000)">
                <path d="M14.8909091,11.3727273 L20.2090909,6.21818182 C20.3727273,6.35454545 20.4545455,6.57272727 20.4545455,6.79090909 L20.4545455,17.1545455 C20.4545455,17.3727273 20.3727273,17.5636364 20.2363636,17.7 L14.8909091,11.3727273 L14.8909091,11.3727273 Z M3.27272727,6.21818182 C3.40909091,6.08181818 3.6,6 3.81818182,6 L19.6363636,6 C19.8545455,6 20.0454545,6.08181818 20.1818182,6.21818182 L11.7272727,12.8181818 L3.27272727,6.21818182 L3.27272727,6.21818182 Z M3.21818182,17.7272727 C3.08181818,17.5909091 3,17.4 3,17.1818182 L3,6.81818182 C3,6.6 3.08181818,6.38181818 3.24545455,6.24545455 L8.56363636,11.4 L3.21818182,17.7272727 L3.21818182,17.7272727 Z M11.7272727,14.4545455 L13.9363636,12.3 L20.1818182,17.7818182 C20.0454545,17.9181818 19.8272727,18 19.6090909,18 L3.79090909,18 C3.57272727,18 3.38181818,17.9181818 3.21818182,17.7818182 L9.46363636,12.3 L11.7272727,14.4545455 L11.7272727,14.4545455 Z" id="MAIL_2_"></path>
            </g>
        </g>
    </g>
</svg>