<?xml version="1.0" encoding="UTF-8" standalone="no"?>
<svg width="23px" height="20px" viewBox="0 0 23 20" version="1.1" xmlns="http://www.w3.org/2000/svg" xmlns:xlink="http://www.w3.org/1999/xlink">
    <!-- Generator: Sketch 39.1 (31720) - http://www.bohemiancoding.com/sketch -->
    <title>Num</title>
    <desc>Created with Sketch.</desc>
    <defs></defs>
    <g id="Page-1" stroke="none" stroke-width="1" fill="none" fill-rule="evenodd">
        <g id="SVG-Icon" transform="translate(-230.000000, -259.000000)" fill="#FFFFFF">
            <g id="Num" transform="translate(229.000000, 257.000000)">
                <path d="M9.04349609,3.43212891 L23.0434961,3.43212891 L23.0434961,4.93212891 L9.04349609,4.93212891 L9.04349609,3.43212891 Z M9.04349609,10.4321289 L23.0434961,10.4321289 L23.0434961,11.9321289 L9.04349609,11.9321289 L9.04349609,10.4321289 Z M9.04349609,17.4321289 L23.0434961,17.4321289 L23.0434961,18.9321289 L9.04349609,18.9321289 L9.04349609,17.4321289 Z M2.60908508,6.93212891 L3.22431946,6.93212891 L3.22431946,2 L2.61250305,2 L1.30000305,2.94335938 L1.30000305,3.59277344 L2.55439758,2.68359375 L2.60908508,2.68359375 L2.60908508,6.93212891 Z M1.39912415,10.3876953 L1.39912415,10.3911133 L1.99385071,10.3911133 L1.99385071,10.3876953 C1.99385071,9.80664062 2.38349915,9.42041016 2.96113586,9.42041016 C3.5045929,9.42041016 3.92500305,9.79980469 3.92500305,10.2919922 C3.92500305,10.6884766 3.77119446,10.9550781 3.13545227,11.6455078 L1.42988586,13.5083008 L1.42988586,13.9321289 L4.62226868,13.9321289 L4.62226868,13.378418 L2.3117218,13.378418 L2.3117218,13.3237305 L3.49775696,12.0488281 C4.30781555,11.1806641 4.54023743,10.7807617 4.54023743,10.2680664 C4.54023743,9.48535156 3.86347961,8.88378906 2.97822571,8.88378906 C2.06221008,8.88378906 1.39912415,9.51269531 1.39912415,10.3876953 Z M2.43818665,18.6591797 L3.06367493,18.6591797 C3.76435852,18.6591797 4.19844055,19.0146484 4.19844055,19.5854492 C4.19844055,20.1254883 3.73701477,20.5117188 3.08760071,20.5117188 C2.45185852,20.5117188 2.00752258,20.1733398 1.95283508,19.6469727 L1.35810852,19.6469727 C1.40254211,20.4912109 2.0929718,21.0483398 3.09443665,21.0483398 C4.06855774,21.0483398 4.83076477,20.4160156 4.83076477,19.6025391 C4.83076477,18.9291992 4.42402649,18.4643555 3.75410461,18.3789062 L3.75410461,18.3242188 C4.29414368,18.1943359 4.61885071,17.7636719 4.61885071,17.1757812 C4.61885071,16.4580078 3.93183899,15.8837891 3.07051086,15.8837891 C2.13056946,15.8837891 1.51875305,16.4101562 1.45722961,17.2646484 L2.05537415,17.2646484 C2.10664368,16.7348633 2.47920227,16.4204102 3.04658508,16.4204102 C3.6139679,16.4204102 3.99336243,16.7553711 3.99336243,17.2578125 C3.99336243,17.7705078 3.59687805,18.1328125 3.03633118,18.1328125 L2.43818665,18.1328125 L2.43818665,18.6591797 Z" id="Combined-Shape"></path>
            </g>
        </g>
    </g>
</svg>