<?xml version="1.0" encoding="UTF-8" standalone="no"?>
<svg width="21px" height="12px" viewBox="0 0 21 12" version="1.1" xmlns="http://www.w3.org/2000/svg" xmlns:xlink="http://www.w3.org/1999/xlink">
    <!-- Generator: Sketch 39.1 (31720) - http://www.bohemiancoding.com/sketch -->
    <title>Preview</title>
    <desc>Created with Sketch.</desc>
    <defs></defs>
    <g id="Page-1" stroke="none" stroke-width="1" fill="none" fill-rule="evenodd">
        <g id="SVG-Icon" transform="translate(-163.000000, -223.000000)" fill="#FFFFFF">
            <g id="Preview" transform="translate(161.000000, 217.000000)">
                <path d="M12.0569464,9.86012173 C11.0154809,9.86012173 10.1713721,10.7234148 10.1713721,11.78855 C10.1713721,12.8536853 11.0154809,13.7169783 12.0569464,13.7169783 C13.098412,13.7169783 13.9425208,12.8536853 13.9425208,11.78855 C13.9425208,10.7234148 13.098412,9.86012173 12.0569464,9.86012173 L12.0569464,9.86012173 Z M22.1124001,11.9103624 C22.1120859,11.9013631 22.1111431,11.8930066 22.1105146,11.8843286 C22.1102003,11.879829 22.1095718,11.8753293 22.1089433,11.871151 C22.1089433,11.864723 22.1076862,11.8586163 22.1064292,11.8525096 C22.1058006,11.8451173 22.1051721,11.837725 22.1039151,11.8306541 C22.1032865,11.8296898 22.1032865,11.8287256 22.1032865,11.8277614 C22.0787741,11.6651306 22.0052367,11.5124634 21.893045,11.3951507 C21.2513212,10.5993526 20.4879778,9.89097658 19.712064,9.24431029 C18.0408166,7.85037803 16.1288442,6.68464312 14.0188865,6.21507083 C12.7989199,5.94380525 11.5720396,5.93255609 10.3457877,6.16203905 C9.23047051,6.37063072 8.15569313,6.80484849 7.14973922,7.34287999 C5.57497038,8.18496034 4.13690569,9.34555278 2.88394154,10.6469205 C2.65201589,10.8876526 2.4213473,11.1335272 2.21047724,11.3951507 C1.92984092,11.743232 1.92984092,12.1559156 2.21047724,12.5043183 C2.85220104,13.3001164 3.61523012,14.0078496 4.39145822,14.6548373 C6.06333414,16.0487696 7.97499226,17.2141831 10.0852642,17.6837554 C11.3049165,17.9550209 12.5327397,17.9669129 13.758363,17.7371085 C14.873366,17.5281955 15.9481434,17.0942991 16.9547258,16.556589 C18.5294946,15.7141872 19.9672451,14.5539162 21.2205235,13.2525485 C21.4521349,13.011495 21.6828035,12.7659418 21.8939878,12.5043183 C22.0061795,12.3863628 22.0797169,12.2343384 22.1042293,12.0710648 C22.1042293,12.0701006 22.1048578,12.0691364 22.1048578,12.0684935 C22.1061149,12.0611012 22.1067434,12.0540303 22.1073719,12.046638 C22.108629,12.0405313 22.1092575,12.0341032 22.109886,12.0279965 C22.1105146,12.0231755 22.1108288,12.0193186 22.1114574,12.014819 C22.1120859,12.0064624 22.1127144,11.9981059 22.1133429,11.9891066 C22.1139715,11.975929 22.1142857,11.9630728 22.1142857,11.9498952 C22.1136572,11.9360748 22.1127144,11.9232186 22.1124001,11.9103624 L22.1124001,11.9103624 Z M12.0569464,15.6454066 C9.97432958,15.6454066 8.28579776,13.9188205 8.28579776,11.78855 C8.28579776,9.65827957 9.97401532,7.93169343 12.0569464,7.93169343 C14.1398776,7.93169343 15.8280951,9.65860097 15.8280951,11.78855 C15.8280951,13.9188205 14.1395633,15.6454066 12.0569464,15.6454066 L12.0569464,15.6454066 Z" id="Shape"></path>
            </g>
        </g>
    </g>
</svg>