<?xml version="1.0" encoding="UTF-8" standalone="no"?>
<svg width="14px" height="16px" viewBox="0 0 14 16" version="1.1" xmlns="http://www.w3.org/2000/svg" xmlns:xlink="http://www.w3.org/1999/xlink">
    <!-- Generator: Sketch 39.1 (31720) - http://www.bohemiancoding.com/sketch -->
    <title>Publish</title>
    <desc>Created with Sketch.</desc>
    <defs></defs>
    <g id="Page-1" stroke="none" stroke-width="1" fill="none" fill-rule="evenodd">
        <g id="SVG-Icon" transform="translate(-235.000000, -112.000000)" fill="#FFFFFF">
            <g id="Publish" transform="translate(230.000000, 108.000000)">
                <path d="M18.1612903,16.3870968 C17.9548387,16.3870968 17.7483871,16.3096774 17.6193548,16.1548387 L17.1290323,15.6645161 L17.1290323,19.2258065 C17.1290323,19.6645161 16.7935484,20 16.3548387,20 C15.916129,20 15.5806452,19.6645161 15.5806452,19.2258065 L15.5806452,15.6645161 L15.0903226,16.1548387 C14.9612903,16.283871 14.7548387,16.3870968 14.5483871,16.3870968 C14.1096774,16.3870968 13.7741935,16.0516129 13.7741935,15.6129032 C13.7741935,15.4064516 13.8516129,15.2 14.0064516,15.0709677 L15.8129032,13.2645161 C15.9419355,13.1354839 16.1483871,13.0322581 16.3548387,13.0322581 C16.5612903,13.0322581 16.7677419,13.1096774 16.8967742,13.2645161 L18.7032258,15.0709677 C18.8322581,15.2 18.9354839,15.4064516 18.9354839,15.6129032 C18.9354839,16.0516129 18.6,16.3870968 18.1612903,16.3870968 L18.1612903,16.3870968 Z M13.4645161,14.5290323 C13.1806452,14.8129032 13,15.2 13,15.6129032 C13,16.4645161 13.6967742,17.1612903 14.5483871,17.1612903 C14.6258065,17.1612903 14.7290323,17.1612903 14.8064516,17.1354839 L14.8064516,18.9677419 L5.77419355,18.9677419 C5.33548387,18.9677419 5,18.6322581 5,18.1935484 L5,4.77419355 C5,4.33548387 5.33548387,4 5.77419355,4 L7.58064516,4 L7.58064516,4 L9.90322581,4 L9.90322581,6.83870968 L9.90322581,8.38709677 C9.90322581,9.23870968 10.6,9.93548387 11.4516129,9.93548387 L13,9.93548387 L16.3548387,9.93548387 L16.3548387,12.2580645 C15.916129,12.2580645 15.5290323,12.4387097 15.2709677,12.7225806 L13.4645161,14.5290323 L13.4645161,14.5290323 Z M11.4516129,9.16129032 C11.0129032,9.16129032 10.6774194,8.82580645 10.6774194,8.38709677 L10.6774194,6.83870968 L10.6774194,4 L10.6774194,4 L16.3548387,9.16129032 L13,9.16129032 L11.4516129,9.16129032 L11.4516129,9.16129032 Z" id="DOCUMENT__x2F__UPLOAD_2_"></path>
            </g>
        </g>
    </g>
</svg>