<?xml version="1.0" encoding="UTF-8" standalone="no"?>
<svg width="20px" height="20px" viewBox="0 0 20 20" version="1.1" xmlns="http://www.w3.org/2000/svg" xmlns:xlink="http://www.w3.org/1999/xlink">
    <!-- Generator: Sketch 39.1 (31720) - http://www.bohemiancoding.com/sketch -->
    <title>Right</title>
    <desc>Created with Sketch.</desc>
    <defs></defs>
    <g id="Page-1" stroke="none" stroke-width="1" fill="none" fill-rule="evenodd">
        <g id="SVG-Icon" transform="translate(-61.000000, -42.000000)" fill="#FFFFFF">
            <g id="Right" transform="translate(59.000000, 40.000000)">
                <path d="M12,21.5 L12,21.5 C17.2467051,21.5 21.5,17.2467051 21.5,12 C21.5,6.75329488 17.2467051,2.5 12,2.5 C6.75329488,2.5 2.5,6.75329488 2.5,12 C2.5,17.2467051 6.75329488,21.5 12,21.5 L12,21.5 Z M12,22 C6.4771525,22 2,17.5228475 2,12 C2,6.4771525 6.4771525,2 12,2 C17.5228475,2 22,6.4771525 22,12 C22,17.5228475 17.5228475,22 12,22 Z M16.3071429,10.1642857 L11.3785714,15.0928571 C11.2714286,15.2 11.1,15.2857143 10.9285714,15.2857143 C10.7571429,15.2857143 10.5857143,15.2214286 10.4785714,15.0928571 L7.69285714,12.3071429 C7.58571429,12.2 7.5,12.0285714 7.5,11.8571429 C7.5,11.4928571 7.77857143,11.2142857 8.14285714,11.2142857 C8.31428571,11.2142857 8.48571429,11.2785714 8.59285714,11.4071429 L10.9285714,13.7428571 L15.4071429,9.26428571 C15.5142857,9.15714286 15.6857143,9.07142857 15.8571429,9.07142857 C16.2214286,9.07142857 16.5,9.35 16.5,9.71428571 C16.5,9.88571429 16.4357143,10.0571429 16.3071429,10.1642857 Z"></path>
            </g>
        </g>
    </g>
</svg>