<?xml version="1.0" encoding="UTF-8" standalone="no"?>
<svg width="12px" height="12px" viewBox="0 0 12 12" version="1.1" xmlns="http://www.w3.org/2000/svg" xmlns:xlink="http://www.w3.org/1999/xlink">
    <!-- Generator: Sketch 39.1 (31720) - http://www.bohemiancoding.com/sketch -->
    <title>ScaleUp</title>
    <desc>Created with Sketch.</desc>
    <defs></defs>
    <g id="Page-1" stroke="none" stroke-width="1" fill="none" fill-rule="evenodd">
        <g id="SVG-Icon" transform="translate(-235.000000, -223.000000)" fill="#FFFFFF">
            <g id="ScaleUp" transform="translate(229.000000, 217.000000)">
                <path d="M18,9.10344828 L18,9.10344828 C18,9.45517241 17.7310345,9.72413793 17.3793103,9.72413793 C17.0275862,9.72413793 16.7586207,9.45517241 16.7586207,9.10344828 L16.7586207,9.10344828 L16.7586207,8.11034483 L13.6758621,11.1931034 C13.5724138,11.2965517 13.4068966,11.3793103 13.2413793,11.3793103 C12.8896552,11.3793103 12.6206897,11.1103448 12.6206897,10.7586207 C12.6206897,10.5931034 12.6827586,10.4275862 12.8068966,10.3241379 L12.8068966,10.3241379 L15.8896552,7.24137931 L14.8965517,7.24137931 L14.8965517,7.24137931 C14.5448276,7.24137931 14.2758621,6.97241379 14.2758621,6.62068966 C14.2758621,6.26896552 14.5448276,6 14.8965517,6 L14.8965517,6 L17.3793103,6 L17.3793103,6 C17.7310345,6 18,6.26896552 18,6.62068966 L18,6.62068966 L18,9.10344828 L18,9.10344828 Z M11.1931034,13.6758621 L8.11034483,16.7586207 L9.10344828,16.7586207 L9.10344828,16.7586207 C9.45517241,16.7586207 9.72413793,17.0275862 9.72413793,17.3793103 C9.72413793,17.7310345 9.45517241,18 9.10344828,18 L9.10344828,18 L6.62068966,18 L6.62068966,18 C6.26896552,18 6,17.7310345 6,17.3793103 L6,17.3793103 L6,14.8965517 L6,14.8965517 C6,14.5448276 6.26896552,14.2758621 6.62068966,14.2758621 C6.97241379,14.2758621 7.24137931,14.5448276 7.24137931,14.8965517 L7.24137931,14.8965517 L7.24137931,15.8896552 L10.3241379,12.8068966 C10.4275862,12.7034483 10.5931034,12.6206897 10.7586207,12.6206897 C11.1103448,12.6206897 11.3793103,12.8896552 11.3793103,13.2413793 C11.3793103,13.4068966 11.3172414,13.5724138 11.1931034,13.6758621 L11.1931034,13.6758621 L11.1931034,13.6758621 Z" id="RESIZE_1_7_"></path>
            </g>
        </g>
    </g>
</svg>