<?xml version="1.0" encoding="UTF-8" standalone="no"?>
<svg width="20px" height="20px" viewBox="0 0 20 20" version="1.1" xmlns="http://www.w3.org/2000/svg" xmlns:xlink="http://www.w3.org/1999/xlink">
    <!-- Generator: Sketch 39.1 (31720) - http://www.bohemiancoding.com/sketch -->
    <title>SendVerify</title>
    <desc>Created with Sketch.</desc>
    <defs></defs>
    <g id="Page-1" stroke="none" stroke-width="1" fill="none" fill-rule="evenodd">
        <g id="SVG-Icon" transform="translate(-27.000000, -42.000000)" fill="#FFFFFF">
            <g id="SendVerify" transform="translate(25.000000, 40.000000)">
                <path d="M12,21.5 C17.2467051,21.5 21.5,17.2467051 21.5,12 C21.5,6.75329488 17.2467051,2.5 12,2.5 C6.75329488,2.5 2.5,6.75329488 2.5,12 C2.5,17.2467051 6.75329488,21.5 12,21.5 Z M14.0522838,12.5496256 C14.3107686,12.2932414 14.3082918,11.8745684 14.0467916,11.6212605 L11.6659933,9.31504711 C11.4081457,9.06527734 10.9966406,9.07182567 10.7468708,9.32967321 C10.4971011,9.58752076 10.5036494,9.99902589 10.7614969,10.2487957 C10.7614969,10.2487957 12.6742437,12.0854443 12.6742436,12.0854444 C12.6742434,12.0854445 10.7560047,13.9880942 10.7560047,13.9880942 C10.5011304,14.2408972 10.4994513,14.652451 10.7522543,14.9073253 C11.0050574,15.1621997 11.4166112,15.1638788 11.6714855,14.9110758 L14.0522838,12.5496256 Z M12,22 L12,22 C6.4771525,22 2,17.5228475 2,12 C2,6.4771525 6.4771525,2 12,2 C17.5228475,2 22,6.4771525 22,12 C22,17.5228475 17.5228475,22 12,22 L12,22 L12,22 L12,22 L12,22 Z"></path>
            </g>
        </g>
    </g>
</svg>