<?xml version="1.0" encoding="UTF-8" standalone="no"?>
<svg width="11px" height="16px" viewBox="0 0 11 16" version="1.1" xmlns="http://www.w3.org/2000/svg" xmlns:xlink="http://www.w3.org/1999/xlink">
    <!-- Generator: Sketch 39.1 (31720) - http://www.bohemiancoding.com/sketch -->
    <title>Share</title>
    <desc>Created with Sketch.</desc>
    <defs></defs>
    <g id="Page-1" stroke="none" stroke-width="1" fill="none" fill-rule="evenodd">
        <g id="SVG-Icon" transform="translate(-168.000000, -111.000000)" fill="#FFFFFF">
            <g id="Share" transform="translate(161.000000, 108.000000)">
                <path d="M17.25,19 L7.75,19 C7.325,19 7,18.675 7,18.25 L7,8.75 C7,8.325 7.325,8 7.75,8 L10.75,8 L10.75,9.5 L8.5,9.5 L8.5,17.5 L16.5,17.5 L16.5,9.5 L14,9.5 L14,8 L17.25,8 C17.675,8 18,8.325 18,8.75 L18,18.25 C18,18.675 17.675,19 17.25,19 L17.25,19 Z M14.75,7 C14.525,7 14.325,6.9 14.2,6.75 L14.2,6.75 L13.25,5.7 L13.25,10.25 L13.25,10.25 C13.25,10.675 12.925,11 12.5,11 C12.075,11 11.75,10.675 11.75,10.25 L11.75,10.25 L11.75,5.7 L10.8,6.75 L10.8,6.75 C10.675,6.9 10.475,7 10.25,7 C9.825,7 9.5,6.675 9.5,6.25 C9.5,6.05 9.575,5.875 9.7,5.75 L9.7,5.75 L11.95,3.25 L11.95,3.25 C12.075,3.1 12.275,3 12.5,3 C12.725,3 12.925,3.1 13.05,3.25 L13.05,3.25 L15.3,5.75 L15.3,5.75 C15.425,5.875 15.5,6.05 15.5,6.25 C15.5,6.675 15.175,7 14.75,7 L14.75,7 Z"></path>
            </g>
        </g>
    </g>
</svg>