<?xml version="1.0" encoding="UTF-8" standalone="no"?>
<svg width="16px" height="16px" viewBox="0 0 16 16" version="1.1" xmlns="http://www.w3.org/2000/svg" xmlns:xlink="http://www.w3.org/1999/xlink">
    <!-- Generator: Sketch 39.1 (31720) - http://www.bohemiancoding.com/sketch -->
    <title>Smash&amp;Empty</title>
    <desc>Created with Sketch.</desc>
    <defs></defs>
    <g id="Page-1" stroke="none" stroke-width="1" fill="none" fill-rule="evenodd">
        <g id="SVG-Icon" transform="translate(-268.000000, -112.000000)" fill="#FFFFFF">
            <g id="Smash&amp;Empty" transform="translate(264.000000, 108.000000)">
                <path d="M12.7636364,9.01474565 L17.6,9.01474565 L12,4 L12,8.26243372 C12,8.67799412 12.3418545,9.01474565 12.7636364,9.01474565 L12.7636364,9.01474565 Z M17.6,10.9351562 L17.6,9.81437966 L12.7636364,9.81437966 C11.9200727,9.81437966 11.2363636,9.13532065 11.2363636,8.29759593 L11.2363636,4 L8.94545455,4 L7.16363636,4.00908103 C6.74185455,4.00908103 6.4,4.34785378 6.4,4.76583326 L6.4,10.9351563 C6.4,10.9351563 16.7564364,10.9351562 17.6,10.9351562 Z M4,12.3400003 C4,11.9754924 4.30533409,11.6800003 4.66712976,11.6800003 L19.3328702,11.6800003 C19.7013158,11.6800003 20,11.9729511 20,12.3400003 C20,12.7045082 19.6946659,13.0000003 19.3328702,13.0000003 L4.66712976,13.0000003 C4.29868417,13.0000003 4,12.7070495 4,12.3400003 Z M6.4,13.7199997 L7.6,13.7199997 L7.6,18.1223809 L6.4,18.1223809 L6.4,13.7199997 Z M8.89599991,13.7199997 L10.0959999,13.7199997 L10.0959999,19.0028571 L8.89599991,19.0028571 L8.89599991,13.7199997 Z M11.4,13.7199997 L12.6,13.7199997 L12.6,19.8833333 L11.4,19.8833333 L11.4,13.7199997 Z M13.9040001,13.7199997 L15.1040001,13.7199997 L15.1040001,19.0028571 L13.9040001,19.0028571 L13.9040001,13.7199997 Z M16.4,13.7199997 L17.6,13.7199997 L17.6,17.2419046 L16.4,17.2419046 L16.4,13.7199997 Z" id="Smash"></path>
            </g>
        </g>
    </g>
</svg>