<?xml version="1.0" encoding="UTF-8" standalone="no"?>
<svg width="15px" height="16px" viewBox="0 0 15 16" version="1.1" xmlns="http://www.w3.org/2000/svg" xmlns:xlink="http://www.w3.org/1999/xlink">
    <!-- Generator: Sketch 39.1 (31720) - http://www.bohemiancoding.com/sketch -->
    <title>UploadImage</title>
    <desc>Created with Sketch.</desc>
    <defs></defs>
    <g id="Page-1" stroke="none" stroke-width="1" fill="none" fill-rule="evenodd">
        <g id="SVG-Icon" transform="translate(-200.000000, -221.000000)" fill="#FFFFFF">
            <g id="UploadImage" transform="translate(195.000000, 217.000000)">
                <path d="M18.2352941,20 L5.88235294,20 C5.38235294,20 5,19.6 5,19.0769231 L5,4.92307692 C5,4.4 5.38235294,4 5.88235294,4 L18.2352941,4 C18.7352941,4 19.1176471,4.4 19.1176471,4.92307692 L19.1176471,19.0769231 C19.1176471,19.6 18.7352941,20 18.2352941,20 L18.2352941,20 Z M17.3529412,5.76470588 L6.76470588,5.76470588 L6.76470588,15.5882353 L17.3529412,15.5882353 L17.3529412,5.76470588 L17.3529412,5.76470588 Z M11.1176471,12.7058824 L14.4117647,8.70588235 L16.5294118,12 L16.5294118,14.8235294 L7.58823529,14.8235294 L10.4117647,12 L11.1176471,12.7058824 L11.1176471,12.7058824 Z M9.70588235,9.41176471 C8.92941176,9.41176471 8.29411765,8.77647059 8.29411765,8 C8.29411765,7.22352941 8.92941176,6.58823529 9.70588235,6.58823529 C10.4823529,6.58823529 11.1176471,7.22352941 11.1176471,8 C11.1176471,8.77647059 10.4823529,9.41176471 9.70588235,9.41176471 L9.70588235,9.41176471 Z" id="POLAROID_2_"></path>
            </g>
        </g>
    </g>
</svg>