<?xml version="1.0" encoding="UTF-8" standalone="no"?>
<svg width="16px" height="13px" viewBox="0 0 16 13" version="1.1" xmlns="http://www.w3.org/2000/svg" xmlns:xlink="http://www.w3.org/1999/xlink">
    <!-- Generator: Sketch 39.1 (31720) - http://www.bohemiancoding.com/sketch -->
    <title>Wechat</title>
    <desc>Created with Sketch.</desc>
    <defs></defs>
    <g id="Page-1" stroke="none" stroke-width="1" fill="none" fill-rule="evenodd">
        <g id="SVG-Icon" transform="translate(-63.000000, -80.000000)" fill="#FFFFFF">
            <g id="Wechat" transform="translate(59.000000, 74.000000)">
                <path d="M8.63300238,6.09718793 C3.91067306,6.90009205 2.33656329,11.9788946 6.0928421,14.3035623 C6.29880792,14.4295888 6.29880792,14.4156218 5.98983799,15.2932053 L5.72505509,16.0447219 L6.67639072,15.5592656 L7.62772635,15.0738094 L8.13282391,15.190511 C8.66238972,15.3165375 9.33914667,15.4052243 9.79026143,15.4052243 L10.0600058,15.4052243 L9.9667975,15.0644442 C9.22634678,12.4690334 11.7860986,9.89695489 15.1157733,9.89695489 L15.5669305,9.89695489 L15.4737646,9.58887222 C14.7430672,7.1568276 11.6586263,5.58371682 8.63300238,6.09718793 L8.63300238,6.09718793 Z M8.22107075,8.37050861 C8.72124922,8.69263907 8.75067896,9.38816637 8.27009205,9.68692421 C7.49041581,10.1723805 6.5783057,9.31812924 7.10299482,8.58990448 C7.33347129,8.26317216 7.88763257,8.15579534 8.22107075,8.37050861 L8.22107075,8.37050861 Z M12.2421749,8.37050861 C13.0659957,8.89802752 12.4481407,10.1163508 11.5261924,9.78025324 C10.859316,9.53752511 10.7808226,8.66462422 11.4035967,8.35185895 C11.6487881,8.22583248 12.03129,8.2351573 12.2421749,8.37050861 L12.2421749,8.37050861 Z M14.061476,10.2937647 C11.7223624,10.699859 10.0992314,12.3896714 10.1923973,14.3315772 C10.314993,16.9316706 13.5171529,18.7241772 16.5917981,17.9212731 L16.954666,17.8279037 L17.7196698,18.220031 C18.1413972,18.4394268 18.4944693,18.5981508 18.5042651,18.5794607 C18.5141033,18.5561285 18.4307332,18.2760607 18.3228524,17.9539706 C18.077661,17.2350706 18.0727419,17.2864178 18.4013034,17.0623797 C22.0987227,14.5369656 18.8524606,9.46752834 14.061476,10.2937647 L14.061476,10.2937647 Z M13.9683101,12.3896714 C14.1742335,12.5203805 14.2821143,12.8471532 14.1938674,13.0852391 C14.0075356,13.5940276 13.2082254,13.6313673 12.9924214,13.1412285 C12.74723,12.5764102 13.423987,12.0535739 13.9683101,12.3896714 L13.9683101,12.3896714 Z M17.244002,12.4457012 C17.5676444,12.7397764 17.513704,13.2392804 17.1361212,13.4259789 C16.5574916,13.7060467 15.9494324,13.145911 16.2485641,12.6090673 C16.4446918,12.263645 16.9497893,12.1796408 17.244002,12.4457012 L17.244002,12.4457012 Z" id="Shape"></path>
            </g>
        </g>
    </g>
</svg>