<?xml version="1.0" encoding="UTF-8" standalone="no"?>
<svg width="16px" height="14px" viewBox="0 0 16 14" version="1.1" xmlns="http://www.w3.org/2000/svg" xmlns:xlink="http://www.w3.org/1999/xlink">
    <!-- Generator: Sketch 39.1 (31720) - http://www.bohemiancoding.com/sketch -->
    <title>Weibo</title>
    <desc>Created with Sketch.</desc>
    <defs></defs>
    <g id="Page-1" stroke="none" stroke-width="1" fill="none" fill-rule="evenodd">
        <g id="SVG-Icon" transform="translate(-29.000000, -79.000000)" fill="#FFFFFF">
            <g id="Weibo" transform="translate(25.000000, 74.000000)">
                <path d="M14.7215717,5.75560243 C14.2182193,5.97050981 14.1028483,6.48215623 14.4698955,6.84035412 C14.6481855,7.01434569 14.8159503,7.04504674 15.5499865,7.04504674 C16.5776837,7.04504674 17.2697933,7.31108472 17.7941381,7.90467628 C18.4337958,8.61080055 18.5072401,8.82570793 18.5072401,10.1151522 C18.5072401,11.261306 18.5072401,11.2817923 18.7798505,11.4352976 C19.4090411,11.783224 19.8285402,11.3534092 19.9753125,10.2072554 C20.1640697,8.71311848 19.2517434,6.97337311 17.8780496,6.17514568 C16.9761905,5.66349926 15.4346737,5.45880665 14.7215717,5.75560243 L14.7215717,5.75560243 Z M9.5622095,7.65906784 C8.38768177,8.06839632 7.25513884,8.85640899 6.03874261,10.125367 C3.15493337,13.1136409 3.34369052,15.9586242 6.52110262,17.4731907 C9.82435283,19.0491593 14.2706712,18.5272413 16.6930547,16.2758495 C18.5072401,14.5975063 18.2870234,12.4893482 16.2211618,11.7730092 C15.8541147,11.650205 15.7387437,11.5581018 15.7911956,11.4455124 C15.9799528,10.9952681 16.0428718,10.4733501 15.9380261,10.1663396 C15.6129056,9.19412059 14.4279689,8.96899844 12.6662354,9.55231848 L11.9636006,9.78765541 L12.0265196,9.10201743 C12.099964,8.29357523 11.9216739,7.85348894 11.4287886,7.6078805 C11.0198148,7.40318788 10.2333267,7.42367417 9.5622095,7.65906784 L9.5622095,7.65906784 Z M12.4774783,11.6195039 C14.0399293,12.0391039 14.9942403,12.9601356 14.9942403,14.0551021 C14.9942403,15.2729295 13.8826317,16.3679527 12.0789716,16.9512727 C11.1141934,17.2582833 9.32100042,17.3196854 8.4401337,17.0842917 C6.77277883,16.6237759 5.82899306,15.7232305 5.82899306,14.5668052 C5.82899306,13.9322978 6.11212879,13.3796788 6.73085218,12.8168451 C7.30759077,12.2847124 7.74802413,12.0288324 8.59743132,11.7525229 C9.87680476,11.3329797 11.2505568,11.2817923 12.4774783,11.6195039 L12.4774783,11.6195039 Z M9.17416991,12.6121525 C8.11507131,13.0931546 7.54879985,13.8299799 7.54879985,14.7510115 C7.54879985,15.5902116 7.92631416,16.1632601 8.75472895,16.5930749 C9.39438659,16.9307865 10.5689143,16.9000854 11.2820163,16.5419443 C12.1943425,16.0711569 12.7920735,15.2013126 12.7920735,14.3518978 C12.7815483,13.6559883 12.1523577,12.8270599 11.4078544,12.5303208 C10.8101234,12.2847124 9.80336043,12.3256282 9.17416991,12.6121525 L9.17416991,12.6121525 Z M9.93972381,14.5361042 C10.01311,14.607721 10.0655619,14.7817126 10.0655619,14.9352179 C10.0655619,15.446921 9.18469519,15.866521 8.82811513,15.5185379 C8.62889085,15.3241168 8.68134278,14.8431147 8.91202658,14.6179926 C9.14271039,14.3928137 9.74044138,14.3416831 9.93972381,14.5361042 L9.93972381,14.5361042 Z M14.8998618,7.85348894 C14.4174436,8.32427628 14.7425641,8.88711004 15.5080599,8.88711004 C16.1687099,8.88711004 16.4623128,9.21460688 16.4623128,9.9514322 C16.4623128,10.411948 16.5042976,10.544967 16.6930547,10.6677712 C17.2593262,11.0566702 17.7207519,10.6268554 17.7207519,9.71603853 C17.7207519,8.60058578 16.9027461,7.76138577 15.7387437,7.67949738 C15.214457,7.63858155 15.0886189,7.66928261 14.8998618,7.85348894 L14.8998618,7.85348894 Z"></path>
            </g>
        </g>
    </g>
</svg>