<?xml version="1.0" encoding="UTF-8" standalone="no"?>
<svg width="22px" height="22px" viewBox="0 0 22 22" version="1.1" xmlns="http://www.w3.org/2000/svg" xmlns:xlink="http://www.w3.org/1999/xlink">
    <!-- Generator: Sketch 39.1 (31720) - http://www.bohemiancoding.com/sketch -->
    <title>WhiteNoise</title>
    <desc>Created with Sketch.</desc>
    <defs></defs>
    <g id="Page-1" stroke="none" stroke-width="1" fill="none" fill-rule="evenodd">
        <g id="SVG-Icon" transform="translate(-26.000000, -143.000000)" fill="#FFFFFF">
            <g id="WhiteNoise" transform="translate(25.000000, 142.000000)">
                <g id="Wave" transform="translate(1.000000, 1.000000)">
                    <path d="M11,21.75 C16.9370611,21.75 21.75,16.9370611 21.75,11 C21.75,5.06293894 16.9370611,0.25 11,0.25 C5.06293894,0.25 0.25,5.06293894 0.25,11 C0.25,16.9370611 5.06293894,21.75 11,21.75 L11,21.75 L11,21.75 L11,21.75 L11,21.75 L11,21.75 L11,21.75 L11,21.75 L11,21.75 L11,21.75 L11,21.75 Z M11,20.25 C5.89136606,20.25 1.75,16.1086339 1.75,11 C1.75,5.89136606 5.89136606,1.75 11,1.75 C16.1086339,1.75 20.25,5.89136606 20.25,11 C20.25,16.1086339 16.1086339,20.25 11,20.25 L11,20.25 L11,20.25 L11,20.25 L11,20.25 L11,20.25 L11,20.25 L11,20.25 L11,20.25 L11,20.25 L11,20.25 Z" id="Mask"></path>
                    <path d="M1.31624494,11.7042032 C1.3545833,11.6728972 1.42935437,11.6144945 1.53272098,11.538178 C1.70631607,11.4100111 1.89331208,11.2817818 2.08536058,11.1627978 C2.30974385,11.0237806 2.525625,10.9071422 2.72464339,10.8204057 C3.04380988,10.6813059 3.29021794,10.6342027 3.41246409,10.6690601 C3.44372038,10.6779725 3.55607934,10.9604929 3.69496664,11.620226 C3.70221927,11.6547053 3.70221927,11.6547053 3.70951035,11.6893972 C3.84586902,12.3379544 3.92157909,12.6083832 4.08649487,12.8798527 C4.39027097,13.3799016 4.91521218,13.509353 5.46253274,13.1792614 C6.09134547,12.8000215 6.33179217,12.0842922 6.61711739,10.4816376 C6.63241892,10.3956899 6.64887926,10.3019878 6.6798998,10.125155 C6.81752459,9.34309633 6.90123066,8.96823401 7.01811834,8.67905884 C7.10955222,8.45285531 7.12780677,8.43760937 7.13174452,8.4386052 C7.3180376,8.48571757 7.56652191,9.23745577 7.90332886,10.9546019 C7.91044821,10.9909017 7.91044821,10.9909017 7.91757683,11.0272464 C8.45988101,13.7918061 8.76282015,14.5974745 9.88642211,14.407016 C10.8129331,14.2499657 11.0804894,13.4452478 11.6323998,10.6329888 C11.6398836,10.5948522 11.6398836,10.5948522 11.6473628,10.5567407 C11.906084,9.23850822 12.0402197,8.66070123 12.2340134,8.14562684 C12.4275752,7.6311686 12.5721409,7.48319323 12.6539945,7.50348972 C13.0905001,7.61172602 13.5768973,8.87662692 14.1473739,11.3567812 C14.1545684,11.3880594 14.4608408,12.7423116 14.5480907,13.1092229 C14.9588306,14.8365036 15.2385708,15.6020668 15.7618075,15.8895481 C16.3242401,16.1985648 16.7915713,15.8947991 17.0904011,15.293995 C17.2668,14.939341 17.408062,14.4769311 17.6005634,13.6992132 C17.6385335,13.5458114 17.7797556,12.9614807 17.8121098,12.8301546 C18.1465405,11.4726943 18.4158188,10.7509875 18.7232017,10.4855192 C18.810486,10.4101369 18.8910487,10.3696388 18.9697871,10.3541946 C19.2337506,10.3024189 19.6189999,10.5292356 20.0297086,10.9820809 C20.2754874,11.2530753 20.4670344,11.5274403 20.5700715,11.7009782 C20.7110518,11.9384211 21.0178245,12.0166196 21.2552674,11.8756392 C21.4927104,11.7346589 21.5709088,11.4278862 21.4299285,11.1904433 C21.3943132,11.130459 21.331963,11.032806 21.2459722,10.9096359 C21.1037649,10.7059432 20.9445215,10.5022208 20.7704369,10.3102761 C20.1455903,9.62132359 19.487144,9.23366139 18.777308,9.37289348 C18.5234353,9.42268979 18.2852866,9.54240468 18.0695799,9.72869776 C17.5343689,10.1909278 17.2342644,10.9952538 16.8411425,12.5909422 C16.8080346,12.7253275 16.6669842,13.308948 16.6298573,13.4589432 C16.4550183,14.1653039 16.3278046,14.581728 16.1950386,14.8486569 C16.1150943,15.0093867 16.170728,14.9732248 16.2433419,15.0131209 C16.1053591,14.9373092 15.8342661,14.1954108 15.5209625,12.8778782 C15.4352267,12.517334 15.1302209,11.1686824 15.1219256,11.1326182 C14.4194763,8.07871085 13.9231151,6.78789823 12.8946669,6.53288332 C12.1485384,6.34787263 11.6499571,6.85821327 11.2980675,7.79348282 C11.076907,8.38129416 10.9367701,8.98495234 10.6660834,10.3641512 C10.6585971,10.4022989 10.6585971,10.4022989 10.6511181,10.4404107 C10.2477025,12.496015 9.95332186,13.3814114 9.71929889,13.4210799 C9.54643024,13.4503824 9.26530003,12.702715 8.89887492,10.834752 C8.89175566,10.7984551 8.89175566,10.7984551 8.88463056,10.762126 C8.41511435,8.36838699 8.18545506,7.67359999 7.37691971,7.46912641 C6.77236687,7.31623874 6.34666912,7.67177561 6.09099389,8.30430525 C5.93768315,8.68358951 5.84582556,9.09495694 5.69503326,9.95184057 C5.66388523,10.1293962 5.64766456,10.2217339 5.63259819,10.3063608 C5.40954881,11.5592157 5.20554738,12.1664597 4.94608347,12.3229436 C4.87088287,12.3682974 4.95899113,12.3900251 4.94114967,12.3606561 C4.86010717,12.2272512 4.79725827,12.0027612 4.68811476,11.4836464 C4.6808474,11.4490673 4.6808474,11.4490673 4.67351759,11.414221 C4.43539053,10.2830859 4.27291565,9.87455178 3.68667556,9.70739064 C3.28904209,9.59400899 2.83770694,9.68028609 2.32511623,9.90368431 C2.07777206,10.0114823 1.82099909,10.1502141 1.55869587,10.3127247 C1.34176923,10.4471221 1.13286713,10.590373 0.938757133,10.7336862 C0.821500689,10.8202578 0.734073721,10.8885458 0.683755061,10.9296345 C0.469863841,11.1042918 0.438058431,11.4192726 0.612715688,11.6331638 C0.787372945,11.847055 1.10235372,11.8788604 1.31624494,11.7042032 L1.31624494,11.7042032 Z" id="Path-410"></path>
                </g>
            </g>
        </g>
    </g>
</svg>