<?xml version="1.0" encoding="UTF-8" standalone="no"?>
<svg width="64px" height="64px" viewBox="0 0 64 64" version="1.1" xmlns="http://www.w3.org/2000/svg" xmlns:xlink="http://www.w3.org/1999/xlink">
    <!-- Generator: Sketch 39 (31667) - http://www.bohemiancoding.com/sketch -->
    <title>Logo_Dark_64</title>
    <desc>Created with Sketch.</desc>
    <defs></defs>
    <g id="Page-1" stroke="none" stroke-width="1" fill="none" fill-rule="evenodd">
        <g id="Logo" transform="translate(-486.000000, -87.000000)">
            <g id="Logo_Dark_64" transform="translate(486.000000, 87.000000)">
                <rect id="Fill" fill="#333333" x="0" y="0" width="64" height="64"></rect>
                <g id="Font" transform="translate(14.035088, 12.070175)">
                    <path d="M3.38978783,2.51694094 C5.11422829,4.41384657 5.77912116,6.53843383 5.77912116,8.51013023 C5.77912116,10.8657084 4.86472624,12.9049151 3.43861799,13.9109502 C2.63659933,14.4755212 1.57772064,14.4086728 1.06734513,13.8857993 C0.594428369,13.401314 0.326196939,12.4766883 1.16433654,11.427632 C2.26000508,10.0588948 4.616562,8.86753743 4.616562,6.28295387 C4.616562,5.22396957 4.31020291,3.89362054 3.38978783,2.51694094" id="Fill-4" fill="#FFFFFF"></path>
                    <polygon id="Fill-6" fill="#FFFFFF" points="29.3980691 24.9117453 35.610202 24.9117453 31.669006 21.6494118"></polygon>
                    <polygon id="Fill-8" fill="#FFFFFF" points="23.8913648 14.7627045 8.83695946 14.7627045 8.75200836 14.6290077 23.8993917 14.6290077"></polygon>
                    <path d="M22.901718,12.0712959 L20.5284384,14.7624397 L21.1873111,14.7624397 L16.8915948,21.7219522 C16.8915948,21.7219522 23.6890207,16.7480353 24.408095,16.3926137 C25.1492432,16.0259404 26.8041174,15.6413967 26.8041174,15.6413967 L22.901718,12.0712959 Z" id="Fill-10" fill="#FFFFFF"></path>
                    <path d="M28.7298317,7.65605939 L30.6522685,4.96888672 L35.0162132,8.86528709 C35.0162132,8.86528709 33.4034801,9.30476558 32.7880863,9.60591424 C32.1981109,9.8938256 26.4588948,13.8160387 26.4588948,13.8160387 L29.5184723,7.65605939 L28.7298317,7.65605939 Z" id="Fill-12" fill="#FFFFFF"></path>
                    <polygon id="Fill-14" fill="#FFFFFF" points="19.2116294 7.57074497 19.2116294 3.14551431 20.1300378 1.76486353 15.4008702 0.220732041 15.4008702 7.57074497"></polygon>
                    <polygon id="Fill-16" fill="#FFFFFF" points="19.2116294 7.51389075 5.01342411 7.51389075 5.10305756 7.65619176 19.2116294 7.65619176"></polygon>
                    <polygon id="Fill-18" fill="#FFFFFF" points="17.9247875 24.7805636 0.0281991788 24.7805636 0.116494811 24.9116129 17.9247875 24.9116129"></polygon>
                    <path d="M15.3791307,34.9315238 C15.3791307,35.4590304 14.9463483,35.8865953 14.41323,35.8865953 L7.35827518,35.8865953 C9.9268754,36.2175279 14.3971763,36.7331209 14.3971763,39.7068812 C16.9697899,39.7068812 19.0855406,37.6855449 19.0855406,34.7011948 L19.0855406,25.317932 C19.0855406,21.6425946 15.4828112,19.6318481 11.9844312,18.9163719 C14.2928269,19.7900339 15.3791307,21.6339903 15.3791307,24.0921576 L15.3791307,34.9315238 Z" id="Fill-20" fill="#FFFFFF"></path>
                    <polygon id="Fill-22" fill="#D5D5D5" points="31.6687385 21.6489485 31.9951648 23.5888753 29.3971327 24.9126057"></polygon>
                    <polygon id="Fill-24" fill="#D5D5D5" points="30.6536063 4.9704752 31.2522774 8.05476698 26.4588948 13.8156416 29.5184723 7.656986 28.7298317 7.656986"></polygon>
                    <polygon id="Fill-26" fill="#D5D5D5" points="22.9011159 12.0712959 20.5271675 14.7637635 21.1867091 14.7637635 16.8916617 21.7212903 23.4302208 14.7372889"></polygon>
                    <polygon id="Fill-28" fill="#D5D5D5" points="15.4007364 0.220401108 17.3559495 2.69180572 17.3559495 7.57041404 15.4007364 7.57041404"></polygon>
                    <path d="M1.16620948,11.4275658 C0.821722732,11.8571163 0.665867563,12.2654871 0.631753341,12.6314986 L2.41438865,12.668563 C5.69537409,9.67097559 5.86728302,5.72228787 3.39032296,2.51621289 C4.31006913,3.89355435 4.61642822,5.22390338 4.61642822,6.28421141 C4.61642822,8.86813311 2.2605402,10.0594905 1.16620948,11.4275658" id="Fill-30" fill="#D5D5D5"></path>
                    <path d="M15.3791307,24.0921576 L15.3791307,34.9315238 C15.3791307,35.4590304 14.9463483,35.8865953 14.41323,35.8865953 L7.3609508,35.8865953 L7.35961299,35.8865953 C7.3609508,35.8872572 7.36228862,35.8872572 7.36362643,35.8872572 C10.4051434,35.9693285 14.1242625,36.4650655 15.1711009,37.326814 C16.2895122,37.326814 17.2072517,36.1420753 17.2072517,35.1082418 L17.2072517,24.5998082 C17.2072517,21.7326082 15.1864857,19.8416594 11.9844312,18.9163719 C14.2928269,19.7900339 15.3791307,21.6339903 15.3791307,24.0921576" id="Fill-32" fill="#D5D5D5"></path>
                    <path d="M29.9873087,34.0647452 C29.9873087,35.3937705 28.8976603,36.471287 27.5544965,36.471287 C26.2113326,36.471287 25.1223531,35.3937705 25.1223531,34.0647452 C25.1223531,32.7357199 26.2113326,31.6575415 27.5544965,31.6575415 C28.8976603,31.6575415 29.9873087,32.7357199 29.9873087,34.0647452" id="Fill-34" fill="#CBCBCB"></path>
                </g>
            </g>
        </g>
    </g>
</svg>