<?xml version="1.0" encoding="UTF-8" standalone="no"?>
<svg width="109px" height="30px" viewBox="0 0 109 30" version="1.1" xmlns="http://www.w3.org/2000/svg" xmlns:xlink="http://www.w3.org/1999/xlink">
    <!-- Generator: Sketch 39 (31667) - http://www.bohemiancoding.com/sketch -->
    <title>Logo</title>
    <desc>Created with Sketch.</desc>
    <defs></defs>
    <g id="Page-1" stroke="none" stroke-width="1" fill="none" fill-rule="evenodd">
        <g id="Logo_Dark" transform="translate(-146.000000, -135.000000)" fill="#464D5C">
            <path d="M219.899634,147.0425 L211.526937,147.0425 L211.468302,146.812 L222.66454,146.812 L222.66454,147.0425 L219.899634,147.0425 L219.899634,161.0206 C219.899634,161.4106 219.581403,161.7286 219.187497,161.7286 L214.030141,161.7286 C215.925498,161.9736 219.210049,162.3601 219.210049,164.5636 C221.104404,164.5636 222.66449,163.0621 222.66449,160.8461 L222.66449,146.9956 L219.899634,146.9956 L219.899634,147.0425 Z M207.176473,149.214178 L208.881656,149.86715 L208.212618,150.69415 L208.212618,163.48215 L205.456782,164.47165 L205.456782,150.630679 C203.777686,151.917461 201.954614,153.044155 199.996029,153.95925 C203.094151,151.48325 206.325078,147.62875 208.101662,144.71525 C208.651927,143.80275 209.023782,143.05175 209.119001,142.56175 L212.174024,144.76375 L211.13263,145.06825 C209.941543,146.542933 208.620657,147.938105 207.176473,149.214178 Z M249.858558,138.84375 L243.603476,138.84375 L243.543338,138.60675 L249.983539,138.60675 L251.003638,136.67235 L254.340308,138.75585 L253.537463,139.19335 L253.537463,160.84635 C253.537463,163.06185 251.976374,164.56335 250.089536,164.56335 C250.089536,162.35985 246.797468,161.97385 244.910631,161.72835 L250.066483,161.72835 C250.46089,161.72835 250.781126,161.41035 250.781126,161.02085 L250.781126,138.84385 L249.858505,138.84385 Z M241.202256,149.856 L241.202256,144.44035 L238.535124,143.09185 L238.535124,158.23685 L241.202256,157.18435 L241.202256,150.0825 L244.605379,150.0825 L244.605379,157.46555 L247.28103,156.41355 L247.28103,144.87505 L248.045788,144.45605 L244.851445,142.46205 L243.758933,144.54055 L244.605379,144.54055 L244.605379,149.856 L241.202256,149.856 Z M158.521034,151.02055 C159.604155,150.223222 163.212619,147.574863 163.655287,147.35425 C164.197032,147.08725 165.392781,146.80625 165.392781,146.80625 L162.561773,144.19875 L161.045968,145.9309 L152.314717,145.9309 L152.374855,146.1609 L161.320328,146.1609 L158.413038,150.921601 C157.423203,150.040412 156.028774,149.479876 154.657001,149.19705 C156.328343,149.83805 157.116154,151.18005 157.116154,152.97455 L157.116154,153.3435 L146,153.3435 L146.060138,153.5775 L157.116154,153.5775 L157.116154,160.89455 C157.116154,161.27655 156.804438,161.58705 156.417548,161.58705 L151.304795,161.58705 C153.162566,161.83255 156.402013,162.20705 156.402013,164.37905 C158.267301,164.37905 159.797819,162.90455 159.797819,160.72355 L159.797819,153.87105 C159.797819,152.694985 159.296896,151.75239 158.521034,151.02055 Z M150.101489,140.7334 C149.939647,139.549806 149.431144,138.329892 148.430187,137.2217 C149.099225,138.2257 149.321235,139.1962 149.321235,139.9707 C149.321235,141.8577 147.611805,142.7292 146.81798,143.7297 C146.214092,144.4927 146.408539,145.1687 146.750325,145.5242 C147.121177,145.9057 147.887439,145.9532 148.467272,145.5432 C149.500146,144.8082 150.160164,143.3187 150.160164,141.5987 C150.160164,141.391812 150.150222,141.182596 150.129506,140.9719 L159.894742,140.9719 L159.894742,140.82325 L159.894742,137.6796 L160.556263,136.6721 L157.129886,135.5461 L157.129886,140.7334 L150.101489,140.7334 Z M184.340439,162.8257 L184.340439,156.54005 L175.764925,156.54005 L175.698272,156.30955 L184.340439,156.30955 L184.340439,145.35595 L179.072378,145.35595 L179.072378,151.8247 L176.285472,152.9257 L176.285472,137.4652 L179.072378,138.8747 L179.072378,145.12995 L184.340439,145.12995 L184.340439,138.9245 L187.096274,138.9245 L187.096274,145.12995 L192.364836,145.12995 L192.364836,138.97805 L191.480302,138.97805 L192.623931,136.80605 L195.774675,138.88905 L195.157756,139.32605 L195.157756,151.94655 L192.364836,153.04805 L192.364836,145.35595 L187.096274,145.35595 L187.096274,156.30955 L187.096475,156.54005 L187.096274,162.8257 L187.096475,163.1011 L173.090778,163.1011 L173.030639,162.8257 L184.340439,162.8257 Z M231.766264,135 C233.73529,135.0115 235.303896,135.4125 236.499645,135.95 C238.743303,136.9615 239.724058,138.5175 239.880918,139.319 C240.036776,140.082 239.650388,140.7865 238.982353,140.916 C238.290763,141.0495 237.636759,140.591 237.405728,139.746 C237.057427,138.4365 236.707623,137.3065 235.719853,136.4575 C234.924023,135.775 233.73529,135.26 231.766264,135 Z M192.624032,156.54005 L196.443312,156.54005 L194.020241,154.51655 L192.624032,156.54005 Z M194.934543,163.0552 L199.051507,163.0552 L196.436496,160.8762 L194.934543,163.0552 Z M167.264484,153.57765 L171.768839,153.57765 L168.914778,151.19115 L167.264484,153.57765 Z M166.781925,140.9717 L168.179638,139.0117 L171.337397,141.8532 C171.337397,141.8532 170.171216,142.1802 169.724188,142.3992 C169.2942,142.6097 165.14015,145.4712 165.14015,145.4712 L167.354741,140.9717 L166.781925,140.9717 Z M232.227324,139.0928 L235.645181,140.2193 L234.983159,141.2308 L234.983159,162.8783 L232.227324,163.8703 L232.227324,139.0928 Z M222.072128,139.2893 L225.978108,139.2893 L223.496904,137.2218 L222.072128,139.2893 Z M224.449143,147.0425 L228.555583,147.0425 L225.948089,144.871 L224.449143,147.0425 Z M208.702995,136.05715 L211.690362,138.41415 L210.783778,138.63315 C207.929717,141.46915 204.870184,143.87415 200.641463,145.31715 C202.959792,143.82265 205.598358,141.18765 207.195028,138.78915 C207.960287,137.64365 208.57019,136.67915 208.702995,136.05715 Z" id="Logo"></path>
        </g>
    </g>
</svg>