<?xml version="1.0" encoding="UTF-8" standalone="no"?>
<svg width="16px" height="16px" viewBox="0 0 16 16" version="1.1" xmlns="http://www.w3.org/2000/svg" xmlns:xlink="http://www.w3.org/1999/xlink">
    <!-- Generator: Sketch 39 (31667) - http://www.bohemiancoding.com/sketch -->
    <title>Logo_White_16</title>
    <desc>Created with Sketch.</desc>
    <defs></defs>
    <g id="Page-1" stroke="none" stroke-width="1" fill="none" fill-rule="evenodd">
        <g id="Logo" transform="translate(-312.000000, -135.000000)">
            <g id="Logo_White_16" transform="translate(312.000000, 135.000000)">
                <rect id="Fill" fill="#FFFFFF" x="0" y="0" width="16" height="16"></rect>
                <g id="Font" transform="translate(3.508772, 3.017544)">
                    <path d="M0.847446958,0.629235235 C1.27855707,1.10346164 1.44478029,1.63460846 1.44478029,2.12753256 C1.44478029,2.71642711 1.21618156,3.22622877 0.859654498,3.47773754 C0.659149832,3.6188803 0.394430161,3.6021682 0.266836282,3.47144982 C0.148607092,3.35032849 0.0815492348,3.11917208 0.291084136,2.856908 C0.565001269,2.51472369 1.1541405,2.21688436 1.1541405,1.57073847 C1.1541405,1.30599239 1.07755073,0.973405134 0.847446958,0.629235235" id="Fill-4" fill="#000000"></path>
                    <polygon id="Fill-6" fill="#000000" points="7.34951728 6.22793633 8.9025505 6.22793633 7.91725151 5.41235295"></polygon>
                    <polygon id="Fill-8" fill="#000000" points="5.97284121 3.75825193 2.20923987 3.75825193 2.18800209 3.65725193 5.97484793 3.65725193"></polygon>
                    <path d="M5.72542949,3.01782397 L5.13210959,3.69060994 L5.29682777,3.69060994 L4.22289869,5.43048805 C4.22289869,5.43048805 5.92225517,4.18700883 6.10202374,4.09815343 C6.28731079,4.0064851 6.70102934,3.91034918 6.70102934,3.91034918 L5.72542949,3.01782397 Z" id="Fill-10" fill="#000000"></path>
                    <path d="M7.18245793,1.91401485 L7.66306711,1.24222168 L8.7540533,2.21632177 C8.7540533,2.21632177 8.35087003,2.32619139 8.19702158,2.40147856 C8.04952773,2.4734564 6.6147237,3.45400968 6.6147237,3.45400968 L7.37961807,1.91401485 L7.18245793,1.91401485 Z" id="Fill-12" fill="#000000"></path>
                    <polygon id="Fill-14" fill="#000000" points="4.80290735 1.89268624 4.80290735 0.786378578 5.03250944 0.441215882 3.85021754 0.0551830102 3.85021754 1.89268624"></polygon>
                    <polygon id="Fill-16" fill="#000000" points="4.80290735 1.87847269 1.25335603 1.87847269 1.27576439 1.98597269 4.80290735 1.98597269"></polygon>
                    <polygon id="Fill-18" fill="#000000" points="4.48119686 6.1951409 0.0070497947 6.1951409 0.0291237029 6.2941409 4.48119686 6.2941409"></polygon>
                    <path d="M3.84478268,8.73288096 C3.84478268,8.8647576 3.73658708,8.97164883 3.6033075,8.97164883 L1.83956879,8.97164883 C2.48171885,9.05438198 3.59929406,9.18328022 3.59929406,9.9267203 C4.24244748,9.9267203 4.77138514,9.42138622 4.77138514,8.67529869 L4.77138514,6.32948299 C4.77138514,5.41064864 3.8707028,4.90796203 2.9961078,4.72909296 C3.57320672,4.94750848 3.84478268,5.40849758 3.84478268,6.02303941 L3.84478268,8.73288096 Z" id="Fill-20" fill="#000000"></path>
                    <polygon id="Fill-22" fill="#404040" points="7.91718462 5.41223712 7.99879119 5.89721884 7.34928317 6.22815143"></polygon>
                    <polygon id="Fill-24" fill="#404040" points="7.66340157 1.2426188 7.81306935 2.01369175 6.6147237 3.4539104 7.37961807 1.9142465 7.18245793 1.9142465"></polygon>
                    <polygon id="Fill-26" fill="#404040" points="5.72527898 3.01782397 5.13179186 3.69094087 5.29667727 3.69094087 4.22291542 5.43032259 5.85755521 3.68432222"></polygon>
                    <polygon id="Fill-28" fill="#404040" points="3.8501841 0.055100277 4.3501841 0.672951431 4.3501841 1.89260351 3.8501841 1.89260351"></polygon>
                    <path d="M0.29155237,2.85689145 C0.205430683,2.96427908 0.166466891,3.06637178 0.157938335,3.15787464 L0.603597163,3.16714076 C1.42384352,2.4177439 1.46682075,1.43057197 0.847580739,0.629053223 C1.07751728,0.973388587 1.15410705,1.30597584 1.15410705,1.57105285 C1.15410705,2.21703328 0.56513505,2.51487261 0.29155237,2.85689145" id="Fill-30" fill="#404040"></path>
                    <path d="M3.84478268,6.02303941 L3.84478268,8.73288096 C3.84478268,8.8647576 3.73658708,8.97164883 3.6033075,8.97164883 L1.8402377,8.97164883 L1.83990325,8.97164883 C1.8402377,8.97181429 1.84057215,8.97181429 1.84090661,8.97181429 C2.60128585,8.99233211 3.53106562,9.11626637 3.79277521,9.33170349 C4.07237805,9.33170349 4.30181292,9.03551882 4.30181292,8.77706046 L4.30181292,6.14995206 C4.30181292,5.43315206 3.79662143,4.96041485 2.9961078,4.72909296 C3.57320672,4.94750848 3.84478268,5.40849758 3.84478268,6.02303941" id="Fill-32" fill="#404040"></path>
                    <path d="M7.49682717,8.5161863 C7.49682717,8.84844262 7.22441508,9.11782175 6.88862411,9.11782175 C6.55283315,9.11782175 6.28058828,8.84844262 6.28058828,8.5161863 C6.28058828,8.18392997 6.55283315,7.91438537 6.88862411,7.91438537 C7.22441508,7.91438537 7.49682717,8.18392997 7.49682717,8.5161863" id="Fill-34" fill="#CBCBCB"></path>
                </g>
            </g>
        </g>
    </g>
</svg>