<?xml version="1.0" encoding="UTF-8" standalone="no"?>
<svg width="128px" height="128px" viewBox="0 0 128 128" version="1.1" xmlns="http://www.w3.org/2000/svg" xmlns:xlink="http://www.w3.org/1999/xlink">
    <!-- Generator: Sketch 39 (31667) - http://www.bohemiancoding.com/sketch -->
    <title>Logo_White_128</title>
    <desc>Created with Sketch.</desc>
    <defs></defs>
    <g id="Page-1" stroke="none" stroke-width="1" fill="none" fill-rule="evenodd">
        <g id="Logo" transform="translate(-43.000000, -23.000000)">
            <g id="Logo_White_128" transform="translate(43.000000, 23.000000)">
                <rect id="Fill" fill="#FFFFFF" x="0" y="0" width="128" height="128"></rect>
                <g id="Font" transform="translate(28.070175, 24.140351)">
                    <path d="M6.77957566,5.03388188 C10.2284566,8.82769315 11.5582423,13.0768677 11.5582423,17.0202605 C11.5582423,21.7314169 9.72945248,25.8098302 6.87723598,27.8219004 C5.27319866,28.9510424 3.15544128,28.8173456 2.13469026,27.7715986 C1.18885674,26.802628 0.652393878,24.9533766 2.32867309,22.855264 C4.52001015,20.1177895 9.233124,17.7350749 9.233124,12.5659077 C9.233124,10.4479391 8.62040582,7.78724107 6.77957566,5.03388188" id="Fill-4" fill="#000000"></path>
                    <polygon id="Fill-6" fill="#000000" points="58.7961383 49.8234906 71.220404 49.8234906 63.3380121 43.2988236"></polygon>
                    <polygon id="Fill-8" fill="#000000" points="47.7827297 29.525409 17.6739189 29.525409 17.5040167 29.2580154 47.7987834 29.2580154"></polygon>
                    <path d="M45.8034359,24.1425918 L41.0568767,29.5248795 L42.3746222,29.5248795 L33.7831895,43.4439044 C33.7831895,43.4439044 47.3780414,33.4960706 48.8161899,32.7852274 C50.2984863,32.0518808 53.6082347,31.2827934 53.6082347,31.2827934 L45.8034359,24.1425918 Z" id="Fill-10" fill="#000000"></path>
                    <path d="M57.4596635,15.3121188 L61.3045369,9.93777344 L70.0324264,17.7305742 C70.0324264,17.7305742 66.8069602,18.6095312 65.5761726,19.2118285 C64.3962219,19.7876512 52.9177896,27.6320774 52.9177896,27.6320774 L59.0369445,15.3121188 L57.4596635,15.3121188 Z" id="Fill-12" fill="#000000"></path>
                    <polygon id="Fill-14" fill="#000000" points="38.4232588 15.1414899 38.4232588 6.29102862 40.2600756 3.52972705 30.8017404 0.441464081 30.8017404 15.1414899"></polygon>
                    <polygon id="Fill-16" fill="#000000" points="38.4232588 15.0277815 10.0268482 15.0277815 10.2061151 15.3123835 38.4232588 15.3123835"></polygon>
                    <polygon id="Fill-18" fill="#000000" points="35.8495749 49.5611272 0.0563983576 49.5611272 0.232989623 49.8232259 35.8495749 49.8232259"></polygon>
                    <path d="M30.7582614,69.8630477 C30.7582614,70.9180608 29.8926967,71.7731906 28.82646,71.7731906 L14.7165504,71.7731906 C19.8537508,72.4350558 28.7943525,73.4662418 28.7943525,79.4137624 C33.9395798,79.4137624 38.1710811,75.3710898 38.1710811,69.4023895 L38.1710811,50.6358639 C38.1710811,43.2851891 30.9656224,39.2636963 23.9688624,37.8327437 C28.5856538,39.5800678 30.7582614,43.2679806 30.7582614,48.1843153 L30.7582614,69.8630477 Z" id="Fill-20" fill="#000000"></path>
                    <polygon id="Fill-22" fill="#404040" points="63.337477 43.297897 63.9903295 47.1777507 58.7942653 49.8252114"></polygon>
                    <polygon id="Fill-24" fill="#404040" points="61.3072125 9.9409504 62.5045548 16.109534 52.9177896 27.6312832 59.0369445 15.313972 57.4596635 15.313972"></polygon>
                    <polygon id="Fill-26" fill="#404040" points="45.8022319 24.1425918 41.0543349 29.5275269 42.3734181 29.5275269 33.7833233 43.4425807 46.8604417 29.4745777"></polygon>
                    <polygon id="Fill-28" fill="#404040" points="30.8014728 0.440802216 34.7118991 5.38361145 34.7118991 15.1408281 30.8014728 15.1408281"></polygon>
                    <path d="M2.33241896,22.8551316 C1.64344546,23.7142326 1.33173513,24.5309743 1.26350668,25.2629972 L4.8287773,25.3371261 C11.3907482,19.3419512 11.734566,11.4445757 6.78064591,5.03242578 C8.62013826,7.7871087 9.23285644,10.4478068 9.23285644,12.5684228 C9.23285644,17.7362662 4.5210804,20.1189809 2.33241896,22.8551316" id="Fill-30" fill="#404040"></path>
                    <path d="M30.7582614,48.1843153 L30.7582614,69.8630477 C30.7582614,70.9180608 29.8926967,71.7731906 28.82646,71.7731906 L14.7219016,71.7731906 L14.719226,71.7731906 C14.7219016,71.7745143 14.7245772,71.7745143 14.7272529,71.7745143 C20.8102868,71.9386569 28.248525,72.930131 30.3422017,74.6536279 C32.5790244,74.6536279 34.4145033,72.2841505 34.4145033,70.2164837 L34.4145033,49.1996165 C34.4145033,43.4652165 30.3729714,39.6833188 23.9688624,37.8327437 C28.5856538,39.5800678 30.7582614,43.2679806 30.7582614,48.1843153" id="Fill-32" fill="#404040"></path>
                    <path d="M59.9746174,68.1294904 C59.9746174,70.787541 57.7953206,72.942574 55.1089929,72.942574 C52.4226652,72.942574 50.2447062,70.787541 50.2447062,68.1294904 C50.2447062,65.4714398 52.4226652,63.315083 55.1089929,63.315083 C57.7953206,63.315083 59.9746174,65.4714398 59.9746174,68.1294904" id="Fill-34" fill="#CBCBCB"></path>
                </g>
            </g>
        </g>
    </g>
</svg>