<?xml version="1.0" encoding="UTF-8"?>
<svg width="24px" height="54px" viewBox="0 0 24 54" version="1.1" xmlns="http://www.w3.org/2000/svg" xmlns:xlink="http://www.w3.org/1999/xlink">
    <!-- Generator: Sketch 52.5 (67469) - http://www.bohemiancoding.com/sketch -->
    <title>Combined Shape</title>
    <desc>Created with Sketch.</desc>
    <g id="Page-1" stroke="none" stroke-width="1" fill="none" fill-rule="evenodd" opacity="0.346377418">
        <g id="Artboard-Copy-3" transform="translate(-253.000000, -329.000000)" fill="#000000" fill-rule="nonzero">
            <g id="Group-2" transform="translate(250.000000, 105.000000)">
                <path d="M5,228 C3.8954305,228 3,227.104569 3,226 C3,224.895431 3.8954305,224 5,224 C6.1045695,224 7,224.895431 7,226 C7,227.104569 6.1045695,228 5,228 Z M15,228 C13.8954305,228 13,227.104569 13,226 C13,224.895431 13.8954305,224 15,224 C16.1045695,224 17,224.895431 17,226 C17,227.104569 16.1045695,228 15,228 Z M25,228 C23.8954305,228 23,227.104569 23,226 C23,224.895431 23.8954305,224 25,224 C26.1045695,224 27,224.895431 27,226 C27,227.104569 26.1045695,228 25,228 Z M25,238 C23.8954305,238 23,237.104569 23,236 C23,234.895431 23.8954305,234 25,234 C26.1045695,234 27,234.895431 27,236 C27,237.104569 26.1045695,238 25,238 Z M15,238 C13.8954305,238 13,237.104569 13,236 C13,234.895431 13.8954305,234 15,234 C16.1045695,234 17,234.895431 17,236 C17,237.104569 16.1045695,238 15,238 Z M5,238 C3.8954305,238 3,237.104569 3,236 C3,234.895431 3.8954305,234 5,234 C6.1045695,234 7,234.895431 7,236 C7,237.104569 6.1045695,238 5,238 Z M5,248 C3.8954305,248 3,247.104569 3,246 C3,244.895431 3.8954305,244 5,244 C6.1045695,244 7,244.895431 7,246 C7,247.104569 6.1045695,248 5,248 Z M15,248 C13.8954305,248 13,247.104569 13,246 C13,244.895431 13.8954305,244 15,244 C16.1045695,244 17,244.895431 17,246 C17,247.104569 16.1045695,248 15,248 Z M25,248 C23.8954305,248 23,247.104569 23,246 C23,244.895431 23.8954305,244 25,244 C26.1045695,244 27,244.895431 27,246 C27,247.104569 26.1045695,248 25,248 Z M25,258 C23.8954305,258 23,257.104569 23,256 C23,254.895431 23.8954305,254 25,254 C26.1045695,254 27,254.895431 27,256 C27,257.104569 26.1045695,258 25,258 Z M15,258 C13.8954305,258 13,257.104569 13,256 C13,254.895431 13.8954305,254 15,254 C16.1045695,254 17,254.895431 17,256 C17,257.104569 16.1045695,258 15,258 Z M5,258 C3.8954305,258 3,257.104569 3,256 C3,254.895431 3.8954305,254 5,254 C6.1045695,254 7,254.895431 7,256 C7,257.104569 6.1045695,258 5,258 Z M5,268 C3.8954305,268 3,267.104569 3,266 C3,264.895431 3.8954305,264 5,264 C6.1045695,264 7,264.895431 7,266 C7,267.104569 6.1045695,268 5,268 Z M15,268 C13.8954305,268 13,267.104569 13,266 C13,264.895431 13.8954305,264 15,264 C16.1045695,264 17,264.895431 17,266 C17,267.104569 16.1045695,268 15,268 Z M25,268 C23.8954305,268 23,267.104569 23,266 C23,264.895431 23.8954305,264 25,264 C26.1045695,264 27,264.895431 27,266 C27,267.104569 26.1045695,268 25,268 Z M25,278 C23.8954305,278 23,277.104569 23,276 C23,274.895431 23.8954305,274 25,274 C26.1045695,274 27,274.895431 27,276 C27,277.104569 26.1045695,278 25,278 Z M15,278 C13.8954305,278 13,277.104569 13,276 C13,274.895431 13.8954305,274 15,274 C16.1045695,274 17,274.895431 17,276 C17,277.104569 16.1045695,278 15,278 Z M5,278 C3.8954305,278 3,277.104569 3,276 C3,274.895431 3.8954305,274 5,274 C6.1045695,274 7,274.895431 7,276 C7,277.104569 6.1045695,278 5,278 Z" id="Combined-Shape"></path>
            </g>
        </g>
    </g>
</svg>