<?xml version="1.0" encoding="UTF-8" standalone="no"?>
<svg width="20px" height="20px" viewBox="0 0 20 20" version="1.1" xmlns="http://www.w3.org/2000/svg" xmlns:xlink="http://www.w3.org/1999/xlink">
    <!-- Generator: Sketch 39.1 (31720) - http://www.bohemiancoding.com/sketch -->
    <title>AddMedia</title>
    <desc>Created with Sketch.</desc>
    <defs></defs>
    <g id="Page-1" stroke="none" stroke-width="1" fill="none" fill-rule="evenodd">
        <g id="SVG-Icon" transform="translate(-129.000000, -144.000000)" fill="#FFFFFF">
            <g id="AddMedia" transform="translate(127.000000, 142.000000)">
                <path d="M12,21 L12,21 C16.9705627,21 21,16.9705627 21,12 C21,7.02943725 16.9705627,3 12,3 C7.02943725,3 3,7.02943725 3,12 C3,16.9705627 7.02943725,21 12,21 L12,21 Z M12.6,11.4 L12.6,8.60130024 C12.6,8.26617432 12.3313708,8 12,8 C11.6783203,8 11.4,8.26921129 11.4,8.60130024 L11.4,11.4 L8.60130024,11.4 C8.26617432,11.4 8,11.6686292 8,12 C8,12.3216797 8.26921129,12.6 8.60130024,12.6 L11.4,12.6 L11.4,15.3986998 C11.4,15.7338257 11.6686292,16 12,16 C12.3216797,16 12.6,15.7307887 12.6,15.3986998 L12.6,12.6 L15.3986998,12.6 C15.7338257,12.6 16,12.3313708 16,12 C16,11.6783203 15.7307887,11.4 15.3986998,11.4 L12.6,11.4 Z M12,22 C6.4771525,22 2,17.5228475 2,12 C2,6.4771525 6.4771525,2 12,2 C17.5228475,2 22,6.4771525 22,12 C22,17.5228475 17.5228475,22 12,22 Z" id="AddBtn"></path>
            </g>
        </g>
    </g>
</svg>