<?xml version="1.0" encoding="UTF-8" standalone="no"?>
<svg width="16px" height="13px" viewBox="0 0 16 13" version="1.1" xmlns="http://www.w3.org/2000/svg" xmlns:xlink="http://www.w3.org/1999/xlink">
    <!-- Generator: Sketch 39.1 (31720) - http://www.bohemiancoding.com/sketch -->
    <title>Camera</title>
    <desc>Created with Sketch.</desc>
    <defs></defs>
    <g id="Page-1" stroke="none" stroke-width="1" fill="none" fill-rule="evenodd">
        <g id="SVG-Icon" transform="translate(-199.000000, -46.000000)" fill="#FFFFFF">
            <g id="Camera" transform="translate(195.000000, 40.000000)">
                <path d="M18.596429,8.05849557 L16.3508121,8.05849557 C16.0701302,8.05849557 15.8829551,7.87137427 15.8829551,7.59063856 L15.8829551,7.40351726 C15.8829551,6.65497831 15.2279768,6 14.4794378,6 L9.52040086,6 C8.7718619,6 8.1168836,6.65497831 8.1168836,7.40351726 L8.1168836,7.59063856 C8.1168836,7.8713205 7.9297623,8.05849557 7.64902659,8.05849557 L5.40351726,8.05849557 C4.65497831,8.05849557 4,8.71347388 4,9.46201283 L4,17.1345237 C4,17.8830626 4.65497831,18.5380409 5.40351726,18.5380409 L18.5029221,18.5380409 C19.251461,18.5380409 19.9064394,17.8830626 20,17.1345237 L20,9.46201283 C19.9999462,8.71342011 19.3449679,8.05849557 18.596429,8.05849557 L18.596429,8.05849557 Z M18.9707253,17.1344699 C18.9707253,17.4151519 18.783604,17.6023269 18.5028683,17.6023269 L5.40346349,17.6023269 C5.12278155,17.6023269 4.93560648,17.4152056 4.93560648,17.1344699 L4.93560648,9.46195906 C4.93560648,9.18127712 5.12272778,8.99410205 5.40346349,8.99410205 L7.55551971,8.99410205 C8.30405866,8.99410205 8.95903697,8.33912374 8.95903697,7.59058479 L8.95903697,7.40346349 C8.95903697,7.12278155 9.14615827,6.93560648 9.42689398,6.93560648 L14.385931,6.93560648 C14.6666129,6.93560648 14.853788,7.12272778 14.853788,7.40346349 L14.853788,7.59058479 C14.853788,8.33912374 15.5087663,8.99410205 16.2573052,8.99410205 L18.5029221,8.99410205 C18.783604,8.99410205 18.9707791,9.18122335 18.9707791,9.46195906 L18.9707253,17.1344699 Z M11.9531928,10.1169374 C10.3625542,10.1169374 9.14615827,11.3332796 9.14615827,12.9239719 C9.14615827,14.5146642 10.3625005,15.7310064 11.9531928,15.7310064 C13.5438851,15.7310064 14.7602273,14.5146642 14.7602273,12.9239719 C14.7601735,11.3333333 13.5438313,10.1169374 11.9531928,10.1169374 Z M11.9531928,14.7952924 C10.9239719,14.7952924 10.0818723,13.9531928 10.0818723,12.9239719 C10.0818723,11.894751 10.9239719,11.0526514 11.9531928,11.0526514 C12.9824137,11.0526514 13.8245133,11.894751 13.8245133,12.9239719 C13.8245133,13.9531928 12.9824137,14.7952924 11.9531928,14.7952924 Z"></path>
            </g>
        </g>
    </g>
</svg>