<?xml version="1.0" encoding="UTF-8" standalone="no"?>
<svg width="16px" height="17px" viewBox="0 0 16 17" version="1.1" xmlns="http://www.w3.org/2000/svg" xmlns:xlink="http://www.w3.org/1999/xlink">
    <!-- Generator: Sketch 39.1 (31720) - http://www.bohemiancoding.com/sketch -->
    <title>Copy</title>
    <desc>Created with Sketch.</desc>
    <defs></defs>
    <g id="Page-1" stroke="none" stroke-width="1" fill="none" fill-rule="evenodd">
        <g id="SVG-Icon" transform="translate(-165.000000, -78.000000)" fill="#FFFFFF">
            <g id="Copy" transform="translate(161.000000, 74.000000)">
                <path d="M19.0737462,9.44366878 L16.8534784,11.6906869 C16.0242217,12.5199435 14.8472122,12.7874457 13.7772036,12.4931933 L15.6497187,10.6206783 C15.6764689,10.593928 15.7032191,10.5671778 15.7299693,10.5404276 L17.9502372,8.29340953 C18.5654922,7.67815458 18.5654922,6.66164641 17.9502372,6.04639146 C17.3349823,5.43113651 16.3452243,5.43113651 15.7299693,6.04639146 L13.5097015,8.29340953 L13.5097015,8.29340953 L13.5097015,8.29340953 L11.583686,10.219425 C11.3161838,9.17616663 11.583686,7.99915717 12.4129427,7.1699005 L14.6332105,4.92288242 C15.8637204,3.69237253 17.8699866,3.69237253 19.1004965,4.92288242 C20.3042561,6.20689275 20.3042561,8.21315889 19.0737462,9.44366878 L19.0737462,9.44366878 Z M9.87167223,15.3287161 L9.87167223,15.3287161 C9.71117094,15.4624672 9.52391943,15.5694681 9.30991771,15.5694681 C8.85516405,15.5694681 8.50741125,15.2217153 8.50741125,14.7669616 C8.50741125,14.5262097 8.61441211,14.3389582 8.77491341,14.1784569 L14.071456,8.88191427 C14.2052071,8.72141298 14.4192088,8.61441211 14.6599607,8.61441211 C15.1147144,8.61441211 15.4624672,8.96216491 15.4624672,9.41691857 C15.4624672,9.63092029 15.3822165,9.84492201 15.2217153,9.97867309 L15.2217153,9.97867309 L9.87167223,15.3287161 L9.87167223,15.3287161 Z M8.2399091,13.5899521 L6.01964124,15.8369702 C5.4043863,16.4522252 5.4043863,17.4687333 6.01964124,18.0839883 C6.63489619,18.6992432 7.62465415,18.6992432 8.2399091,18.0839883 L10.460177,15.8369702 C10.4869272,15.81022 10.4869272,15.81022 10.5136774,15.7834698 L12.4129427,13.8842045 C12.707195,14.9542131 12.4129427,16.1044724 11.6104362,16.933729 L9.39016835,19.1807471 C8.15965846,20.411257 6.15339232,20.411257 4.92288242,19.1807471 C3.69237253,17.9502372 3.69237253,15.9439711 4.92288242,14.7134612 L7.14315028,12.4664431 C7.97240695,11.6371864 9.14941642,11.3696843 10.1926748,11.6371864 L8.2399091,13.5899521 L8.2399091,13.5899521 L8.2399091,13.5899521 Z" id="LINK_2_"></path>
            </g>
        </g>
    </g>
</svg>