<?xml version="1.0" encoding="UTF-8" standalone="no"?>
<svg width="22px" height="18px" viewBox="0 0 22 18" version="1.1" xmlns="http://www.w3.org/2000/svg" xmlns:xlink="http://www.w3.org/1999/xlink">
    <!-- Generator: Sketch 39.1 (31720) - http://www.bohemiancoding.com/sketch -->
    <title>Dot</title>
    <desc>Created with Sketch.</desc>
    <defs></defs>
    <g id="Page-1" stroke="none" stroke-width="1" fill="none" fill-rule="evenodd">
        <g id="SVG-Icon" transform="translate(-196.000000, -260.000000)" fill="#FFFFFF">
            <g id="Dot" transform="translate(195.000000, 257.000000)">
                <path d="M3.0000031,6.4000001 C3.9388872,6.4000001 4.70000315,5.63888415 4.70000315,4.70000005 C4.70000315,3.76111595 3.9388872,3 3.0000031,3 C2.061119,3 1.30000305,3.76111595 1.30000305,4.70000005 C1.30000305,5.63888415 2.061119,6.4000001 3.0000031,6.4000001 Z M3.0000031,13.4000001 C3.9388872,13.4000001 4.70000315,12.6388841 4.70000315,11.7 C4.70000315,10.7611159 3.9388872,10 3.0000031,10 C2.061119,10 1.30000305,10.7611159 1.30000305,11.7 C1.30000305,12.6388841 2.061119,13.4000001 3.0000031,13.4000001 Z M3.0000031,20.4000001 C3.9388872,20.4000001 4.70000315,19.6388841 4.70000315,18.7 C4.70000315,17.7611159 3.9388872,17 3.0000031,17 C2.061119,17 1.30000305,17.7611159 1.30000305,18.7 C1.30000305,19.6388841 2.061119,20.4000001 3.0000031,20.4000001 Z M9,4 L23,4 L23,5.5 L9,5.5 L9,4 Z M9,11 L23,11 L23,12.5 L9,12.5 L9,11 Z M9,18 L23,18 L23,19.5 L9,19.5 L9,18 Z" id="Combined-Shape"></path>
            </g>
        </g>
    </g>
</svg>