<?xml version="1.0" encoding="UTF-8" standalone="no"?>
<svg width="16px" height="16px" viewBox="0 0 16 16" version="1.1" xmlns="http://www.w3.org/2000/svg" xmlns:xlink="http://www.w3.org/1999/xlink">
    <!-- Generator: Sketch 39.1 (31720) - http://www.bohemiancoding.com/sketch -->
    <title>Edit</title>
    <desc>Created with Sketch.</desc>
    <defs></defs>
    <g id="Page-1" stroke="none" stroke-width="1" fill="none" fill-rule="evenodd">
        <g id="SVG-Icon" transform="translate(-97.000000, -112.000000)" fill="#FFFFFF">
            <g id="Edit" transform="translate(93.000000, 108.000000)">
                <path d="M19.7574845,5.33252582 L18.6512366,4.22863503 C18.3458661,3.92378832 17.8506212,3.92378832 17.5452507,4.22863503 L15.8864027,5.88434027 L18.0983746,8.09185995 L19.7572226,6.43615471 C20.0631169,6.1315699 20.0631169,5.63737253 19.7574845,5.33252582 L19.7574845,5.33252582 Z M17.6185815,18.4286252 L5.57137479,18.4286252 L5.57137479,6.38141849 L14.3074329,6.38141849 L15.8788077,4.8100437 L4.78568739,4.8100437 C4.35172606,4.8100437 4,5.16176976 4,5.5957311 L4,19.2143126 C4,19.6482739 4.35172606,20 4.78568739,20 L18.4042689,20 C18.8382302,20 19.1899563,19.6482739 19.1899563,19.2143126 L19.1899563,8.16571457 L17.6185815,9.73708936 L17.6185815,18.4286252 L17.6185815,18.4286252 Z M17.5455126,8.64393629 L15.3338026,6.43641661 L8.69788683,13.0592376 L10.9098587,15.2667572 L17.5455126,8.64393629 L17.5455126,8.64393629 Z M7.40412159,16.5534513 L10.3525445,15.8185717 L8.14031067,13.6105282 L7.40412159,16.5534513 L7.40412159,16.5534513 Z"></path>
            </g>
        </g>
    </g>
</svg>