<?xml version="1.0" encoding="UTF-8" standalone="no"?>
<svg width="24px" height="14px" viewBox="0 0 24 14" version="1.1" xmlns="http://www.w3.org/2000/svg" xmlns:xlink="http://www.w3.org/1999/xlink">
    <!-- Generator: Sketch 39.1 (31720) - http://www.bohemiancoding.com/sketch -->
    <title>H1</title>
    <desc>Created with Sketch.</desc>
    <defs></defs>
    <g id="Page-1" stroke="none" stroke-width="1" fill="none" fill-rule="evenodd">
        <g id="SVG-Icon" transform="translate(-59.000000, -262.000000)" fill="#FFFFFF">
            <g id="H1" transform="translate(59.000000, 257.000000)">
                <path d="M0.299999237,5.23299999 L1.93099918,5.23299999 L1.93099918,11.0579998 L9.27049894,11.0579998 L9.27049894,5.23299999 L10.9014989,5.23299999 L10.9014989,18.9799995 L9.27049894,18.9799995 L9.27049894,12.5724998 L1.93099918,12.5724998 L1.93099918,18.9799995 L0.299999237,18.9799995 L0.299999237,5.23299999 Z M14.8754432,17.1159996 L20.0596931,12.0676664 C20.3833058,11.7569982 20.6680807,11.4689872 20.9140264,11.2036248 C21.159972,10.9382624 21.363845,10.6793761 21.5256513,10.4269582 C21.6874577,10.1745402 21.8071926,9.91241786 21.8848597,9.64058318 C21.9625267,9.3687485 22.0013597,9.06455711 22.0013597,8.72799988 C22.0013597,8.36555363 21.9366381,8.04194577 21.807193,7.75716658 C21.6777479,7.47238738 21.4997636,7.22968149 21.2732347,7.0290416 C21.0467058,6.82840171 20.7813473,6.67306994 20.4771514,6.56304162 C20.1729554,6.45301329 19.8461115,6.39799995 19.4966097,6.39799995 C18.7976063,6.39799995 18.2215843,6.59863683 17.7685265,6.9999166 C17.3154687,7.40119637 17.0242216,7.93191327 16.8947765,8.59208322 L15.1278599,8.43674989 C15.2184715,7.88013601 15.3899836,7.38501598 15.6424015,6.95137494 C15.8948195,6.51773389 16.2119552,6.15852916 16.5938182,5.87374997 C16.9756812,5.58897078 17.4060796,5.37215351 17.8850265,5.22329166 C18.3639733,5.07442981 18.8817459,5 19.4383597,5 C20.0079181,5 20.5451072,5.08090197 21.049943,5.24270833 C21.5547789,5.40451468 21.9981216,5.64074843 22.3799847,5.95141664 C22.7618477,6.26208485 23.0660391,6.65041428 23.292568,7.1164166 C23.5190969,7.58241891 23.6323596,8.11960797 23.6323596,8.72799988 C23.6323596,9.27166925 23.5579298,9.7635532 23.409068,10.2036665 C23.2602061,10.6437798 23.0595692,11.0482896 22.8071513,11.4172081 C22.5547334,11.7861266 22.2699585,12.1356231 21.952818,12.4657081 C21.6356775,12.7957931 21.3023614,13.122637 20.9528597,13.4462497 L16.7200265,17.4266663 L16.7200265,17.4654996 L23.7294429,17.4654996 L23.7294429,18.9799995 L14.8754432,18.9799995 L14.8754432,17.1159996 Z" id="H2"></path>
            </g>
        </g>
    </g>
</svg>