<?xml version="1.0" encoding="UTF-8" standalone="no"?>
<svg width="23px" height="20px" viewBox="0 0 23 20" version="1.1" xmlns="http://www.w3.org/2000/svg" xmlns:xlink="http://www.w3.org/1999/xlink">
    <!-- Generator: Sketch 39.1 (31720) - http://www.bohemiancoding.com/sketch -->
    <title>iMac</title>
    <desc>Created with Sketch.</desc>
    <defs></defs>
    <g id="Page-1" stroke="none" stroke-width="1" fill="none" fill-rule="evenodd">
        <g id="SVG-Icon" transform="translate(-60.000000, -144.000000)" fill="#FFFFFF">
            <g id="iMac" transform="translate(59.000000, 142.000000)">
                <path d="M22.0714286,2 L2.07142857,2 C1.47964286,2 1,2.47964286 1,3.07142857 L1,17.3571429 C1,17.9489286 1.47964286,18.4285714 2.07142857,18.4285714 L8.85714286,18.4285714 L8.85714286,20.2142857 L7.42857143,21.6428571 L7.42857143,22 L16.7142857,22 L16.7142857,21.6428571 L15.2857143,20.2142857 L15.2857143,18.4285714 L22.0714286,18.4285714 C22.6632143,18.4285714 23.1428571,17.9489286 23.1428571,17.3571429 L23.1428571,3.07142857 C23.1428571,2.47964286 22.6632143,2 22.0714286,2 L22.0714286,2 Z M21.7142857,15.5714286 L2.42857143,15.5714286 L2.42857143,3.42857143 L21.7142857,3.42857143 L21.7142857,15.5714286 L21.7142857,15.5714286 Z"></path>
            </g>
        </g>
    </g>
</svg>