<?xml version="1.0" encoding="UTF-8" standalone="no"?>
<svg width="12px" height="20px" viewBox="0 0 12 20" version="1.1" xmlns="http://www.w3.org/2000/svg" xmlns:xlink="http://www.w3.org/1999/xlink">
    <!-- Generator: Sketch 39.1 (31720) - http://www.bohemiancoding.com/sketch -->
    <title>iPhone</title>
    <desc>Created with Sketch.</desc>
    <defs></defs>
    <g id="Page-1" stroke="none" stroke-width="1" fill="none" fill-rule="evenodd">
        <g id="SVG-Icon" transform="translate(-99.000000, -144.000000)" fill="#FFFFFF">
            <g id="iPhone" transform="translate(93.000000, 142.000000)">
                <path d="M16.8876117,2 L7.05363985,2 C6.47167944,2 6,2.46310345 6,3.03448276 L6,20.9655172 C6,21.5368966 6.47167944,22 7.05363985,22 L16.8876117,22 C17.4695722,22 17.9412516,21.5368966 17.9412516,20.9655172 L17.9412516,3.03448276 C17.9412516,2.46310345 17.4695722,2 16.8876117,2 L16.8876117,2 Z M11.9706258,20.9655172 C11.5825351,20.9655172 11.2681992,20.6568966 11.2681992,20.2758621 C11.2681992,19.8948276 11.5825351,19.5862069 11.9706258,19.5862069 C12.3587165,19.5862069 12.6730524,19.8948276 12.6730524,20.2758621 C12.6730524,20.6568966 12.3587165,20.9655172 11.9706258,20.9655172 L11.9706258,20.9655172 Z M16.5,18.5517241 L7.5,18.5517241 L7.5,4.06896552 L16.5,4.06896552 L16.5,18.5517241 Z" id="Combined-Shape"></path>
            </g>
        </g>
    </g>
</svg>