<?xml version="1.0" encoding="UTF-8" standalone="no"?>
<svg width="20px" height="18px" viewBox="0 0 20 18" version="1.1" xmlns="http://www.w3.org/2000/svg" xmlns:xlink="http://www.w3.org/1999/xlink">
    <!-- Generator: Sketch 39.1 (31720) - http://www.bohemiancoding.com/sketch -->
    <title>Link</title>
    <desc>Created with Sketch.</desc>
    <defs></defs>
    <g id="Page-1" stroke="none" stroke-width="1" fill="none" fill-rule="evenodd">
        <g id="SVG-Icon" transform="translate(-163.000000, -260.000000)" fill="#FFFFFF">
            <g id="Link" transform="translate(161.000000, 257.000000)">
                <path d="M12.8891787,19.7871372 C12.4898811,20.1864348 11.8576599,20.1864348 11.4916371,19.7871372 C11.1256142,19.3878396 11.0923394,18.7556184 11.4916371,18.3895956 L18.0800477,11.8011849 C19.6439634,10.2372693 19.6439634,7.70838438 18.0800477,6.14446872 C16.516132,4.58055306 13.9872472,4.58055306 12.4233315,6.14446872 L4.6703028,13.8974974 C3.77188317,14.795917 3.77188317,16.2932831 4.6703028,17.1917027 C5.56872243,18.0901224 7.06608849,18.0901224 7.96450813,17.1917027 L15.2516896,9.90452126 C15.517888,9.63832285 15.517888,9.23902524 15.2516896,8.97282683 C14.9854912,8.70662842 14.5861936,8.70662842 14.3199952,8.97282683 L8.19743173,15.0953903 C7.79813412,15.4946879 7.1659129,15.4946879 6.79989008,15.0953903 C6.40059247,14.6960926 6.40059247,14.0638714 6.79989008,13.6978486 L12.9224535,7.57528517 C13.9539724,6.54376633 15.6509872,6.54376633 16.6825061,7.57528517 C17.7140249,8.60680401 17.7140249,10.3038189 16.6825061,11.3353377 L9.39532458,18.6225192 C7.69830972,20.3195341 4.96977601,20.3195341 3.27276115,18.6225192 C1.57574628,16.9255043 1.57574628,14.1969706 3.27276115,12.4999558 L11.0257898,4.74692707 C13.3550259,2.41769098 17.1483533,2.41769098 19.5108642,4.74692707 C21.8401002,7.07616315 21.8401002,10.8694905 19.4775894,13.1987266 L12.8891787,19.7871372 Z" id="CLIP_2_"></path>
            </g>
        </g>
    </g>
</svg>