<?xml version="1.0" encoding="UTF-8" standalone="no"?>
<svg width="4px" height="16px" viewBox="0 0 4 16" version="1.1" xmlns="http://www.w3.org/2000/svg" xmlns:xlink="http://www.w3.org/1999/xlink">
    <!-- Generator: Sketch 39.1 (31720) - http://www.bohemiancoding.com/sketch -->
    <title>More</title>
    <desc>Created with Sketch.</desc>
    <defs></defs>
    <g id="Page-1" stroke="none" stroke-width="1" fill="none" fill-rule="evenodd">
        <g id="SVG-Icon" transform="translate(-69.000000, -112.000000)" fill="#FFFFFF">
            <g id="More" transform="translate(59.000000, 108.000000)">
                <path d="M11.8833154,10.0797568 C10.8432709,10.0797568 10,10.9395624 10,12 C10,13.0601176 10.8432709,13.9202432 11.8833154,13.9202432 C12.92336,13.9202432 13.7669447,13.0601176 13.7669447,12 C13.7669447,10.9395624 12.92336,10.0797568 11.8833154,10.0797568 L11.8833154,10.0797568 Z M11.8833154,7.84016639 C12.92336,7.84016639 13.7669447,6.98036079 13.7669447,5.9199232 C13.7669447,4.85980561 12.92336,4 11.8833154,4 C10.8432709,4 10,4.85948562 10,5.92024319 C10,6.98068077 10.8432709,7.84016639 11.8833154,7.84016639 L11.8833154,7.84016639 Z M11.8833154,16.1595136 C10.8432709,16.1595136 10,17.0196392 10,18.0797568 C10,19.1398744 10.8432709,20 11.8833154,20 C12.92336,20 13.7669447,19.1398744 13.7669447,18.0797568 C13.7669447,17.0196392 12.92336,16.1595136 11.8833154,16.1595136 L11.8833154,16.1595136 Z"></path>
            </g>
        </g>
    </g>
</svg>