<?xml version="1.0" encoding="UTF-8" standalone="no"?>
<svg width="14px" height="12px" viewBox="0 0 14 12" version="1.1" xmlns="http://www.w3.org/2000/svg" xmlns:xlink="http://www.w3.org/1999/xlink">
    <!-- Generator: Sketch 39.1 (31720) - http://www.bohemiancoding.com/sketch -->
    <title>Note</title>
    <desc>Created with Sketch.</desc>
    <defs></defs>
    <g id="Page-1" stroke="none" stroke-width="1" fill="none" fill-rule="evenodd">
        <g id="SVG-Icon" transform="translate(-64.000000, -223.000000)" fill="#FFFFFF">
            <g id="Note" transform="translate(59.000000, 217.000000)">
                <path d="M5.69393245,7.75179972 L18.3741001,7.75179972 L19,7.75179972 L19,6.5 L18.3741001,6.5 L5.69393245,6.5 L5.06803259,6.5 L5.06803259,7.75179972 L5.69393245,7.75179972 Z M5.62589986,10.881299 L15.379875,10.881299 L16.0057749,10.881299 L16.0057749,9.6294993 L15.379875,9.6294993 L5.62589986,9.6294993 L5,9.6294993 L5,10.881299 L5.62589986,10.881299 Z M5.69393245,14.0107983 L18.3741001,14.0107983 L19,14.0107983 L19,12.7589986 L18.3741001,12.7589986 L5.69393245,12.7589986 L5.06803259,12.7589986 L5.06803259,14.0107983 L5.69393245,14.0107983 Z M5.62589986,17.1402976 L15.379875,17.1402976 L16.0057749,17.1402976 L16.0057749,15.8884979 L15.379875,15.8884979 L5.62589986,15.8884979 L5,15.8884979 L5,17.1402976 L5.62589986,17.1402976 Z" id="Insert"></path>
            </g>
        </g>
    </g>
</svg>