<?xml version="1.0" encoding="UTF-8" standalone="no"?>
<svg width="16px" height="15px" viewBox="0 0 16 15" version="1.1" xmlns="http://www.w3.org/2000/svg" xmlns:xlink="http://www.w3.org/1999/xlink">
    <!-- Generator: Sketch 39.1 (31720) - http://www.bohemiancoding.com/sketch -->
    <title>Quote</title>
    <desc>Created with Sketch.</desc>
    <defs></defs>
    <g id="Page-1" stroke="none" stroke-width="1" fill="none" fill-rule="evenodd">
        <g id="SVG-Icon" transform="translate(-131.000000, -262.000000)" fill="#FFFFFF">
            <g id="Quote" transform="translate(127.000000, 257.000000)">
                <path d="M20,6.24051017 C18.9756864,7.23978846 15.3443995,11.5548891 15.3661356,13.3334647 C16.1837622,12.5907015 17.0081814,12.6619746 17.0081814,12.6619746 C17.7378969,12.6619746 18.3581458,12.9781799 18.8689466,13.6106 C19.3797475,14.2430201 19.6351441,15.0335334 19.6351441,15.9821635 C19.6351441,17.0037653 19.3493431,17.8429255 18.7777326,18.4996695 C18.2061221,19.1564134 17.4703367,19.4847805 16.5703542,19.4847805 C15.5487525,19.4847805 14.721754,19.0469577 14.0893339,18.1712991 C13.4569138,17.2956405 13.1407085,16.1159515 13.1407085,14.6321966 C13.1407085,13.2457371 13.5967738,11.737681 14.5089182,10.107983 C15.4210626,8.47828507 16.7770969,6.77564108 18.5770619,5 L20,6.24051017 Z M10.8592915,6.24051017 C9.83497789,7.23978846 6.20369101,11.5548891 6.22542711,13.3334647 C7.04305373,12.5907015 7.86747288,12.6619746 7.86747288,12.6619746 C8.59718839,12.6619746 9.21743727,12.9781799 9.72823813,13.6106 C10.239039,14.2430201 10.4944356,15.0335334 10.4944356,15.9821635 C10.4944356,17.0037653 10.2086346,17.8429255 9.63702414,18.4996695 C9.06541366,19.1564134 8.32962822,19.4847805 7.42964576,19.4847805 C6.40804404,19.4847805 5.58104553,19.0469577 4.94862542,18.1712991 C4.31620531,17.2956405 4,16.1159515 4,14.6321966 C4,13.2457371 4.45606535,11.737681 5.36820974,10.107983 C6.28035413,8.47828507 7.63638845,6.77564108 9.43635338,5 L10.8592915,6.24051017 Z"></path>
            </g>
        </g>
    </g>
</svg>