<?xml version="1.0" encoding="UTF-8" standalone="no"?>
<svg width="16px" height="17px" viewBox="0 0 16 17" version="1.1" xmlns="http://www.w3.org/2000/svg" xmlns:xlink="http://www.w3.org/1999/xlink">
    <!-- Generator: Sketch 39.1 (31720) - http://www.bohemiancoding.com/sketch -->
    <title>Rain</title>
    <desc>Created with Sketch.</desc>
    <defs></defs>
    <g id="Page-1" stroke="none" stroke-width="1" fill="none" fill-rule="evenodd">
        <g id="SVG-Icon" transform="translate(-63.000000, -181.000000)" fill="#FFFFFF">
            <g id="Rain" transform="translate(59.000000, 177.000000)">
                <path d="M7.8123973,13.4542793 C5.98092102,13.4542792 5.02651664,12.3731374 5.1467979,10.9051553 C5.26569978,9.45400796 6.38475711,8.35615187 7.91113775,8.45259517 L8.38439313,8.48249748 L8.49859902,8.02225643 C9.08666318,5.65240255 10.5650029,4.81203856 12.4367488,5.24561571 C13.9959025,5.606783 15.2941969,6.81998013 15.137019,7.504079 L14.9771942,8.19969815 L15.6909379,8.19969814 C17.7489603,8.19969813 18.8588563,9.3408778 18.8632845,10.9552174 C18.8674324,12.4673509 17.8804003,13.7076191 16.5627261,13.7076194 L16.5627264,14.844322 C18.5729527,14.8443215 20.0057209,13.0439578 19.9999828,10.9520994 C19.9938568,8.71882556 18.3834189,7.06299552 15.6909378,7.06299554 L16.2448567,7.75861468 C16.5796482,6.30147267 14.7826033,4.62221584 12.693266,4.13823512 C10.2323528,3.5681814 8.13712554,4.75921585 7.39535531,7.74849353 L7.98281658,7.31815479 C5.8042901,7.18050611 4.18098241,8.77305922 4.01389186,10.812329 C3.8402467,12.931595 5.30511089,14.5909818 7.81239725,14.5909819 L7.8123973,13.4542793 Z M9.57373406,11.5304132 L8.8585745,14.864687 C8.79274588,15.1715984 8.98818211,15.473764 9.29509355,15.5395926 C9.60200498,15.6054212 9.9041705,15.409985 9.96999912,15.1030735 L10.6851587,11.7687997 C10.7509873,11.4618882 10.5555511,11.1597227 10.2486396,11.0938941 C9.9417282,11.0280655 9.63956268,11.2235017 9.57373406,11.5304132 Z M8.38180146,17.0875362 L8.34006929,17.2821033 C8.27424067,17.5890147 8.4696769,17.8911802 8.77658834,17.9570089 C9.08349977,18.0228375 9.38566529,17.8274012 9.45149391,17.5204898 L9.49322608,17.3259228 C9.5590547,17.0190113 9.36361846,16.7168458 9.05670703,16.6510172 C8.74979559,16.5851886 8.44763008,16.7806248 8.38180146,17.0875362 Z M11.6902928,13.7340804 L11.002826,17.0741739 C10.9395464,17.381621 11.1374833,17.6821544 11.4449304,17.7454339 C11.7523775,17.8087135 12.0529109,17.6107766 12.1161905,17.3033295 L12.8036573,13.963236 C12.8669368,13.6557888 12.6689999,13.3552555 12.3615528,13.2919759 C12.0541057,13.2286963 11.7535723,13.4266332 11.6902928,13.7340804 Z M10.5445148,19.3009029 L10.5152077,19.4432928 C10.4519282,19.7507399 10.6498651,20.0512733 10.9573122,20.1145528 C11.2647593,20.1778324 11.5652927,19.9798955 11.6285722,19.6724484 L11.6578793,19.5300585 C11.7211589,19.2226114 11.523222,18.922078 11.2157748,18.8587985 C10.9083277,18.7955189 10.6077944,18.9934558 10.5445148,19.3009029 Z M14.5455586,11.2041728 L13.8215919,14.5365454 C13.7549526,14.8432819 13.9495897,15.1459627 14.2563262,15.212602 C14.5630626,15.2792413 14.8657434,15.0846041 14.9323827,14.7778677 L15.6563495,11.445495 C15.7229888,11.1387586 15.5283516,10.8360777 15.2216151,10.7694384 C14.9148787,10.7027991 14.6121979,10.8974363 14.5455586,11.2041728 Z M13.3389474,16.7581272 L13.3138304,16.8737391 C13.2471911,17.1804755 13.4418283,17.4831563 13.7485647,17.5497956 C14.0553012,17.6164349 14.357982,17.4217977 14.4246213,17.1150613 L14.4497383,16.9994494 C14.5163776,16.692713 14.3217404,16.3900322 14.0150039,16.3233929 C13.7082675,16.2567536 13.4055867,16.4513908 13.3389474,16.7581272 Z" id="Combined-Shape"></path>
            </g>
        </g>
    </g>
</svg>