<?xml version="1.0" encoding="UTF-8" standalone="no"?>
<svg width="20px" height="20px" viewBox="0 0 20 20" version="1.1" xmlns="http://www.w3.org/2000/svg" xmlns:xlink="http://www.w3.org/1999/xlink">
    <!-- Generator: Sketch 39.1 (31720) - http://www.bohemiancoding.com/sketch -->
    <title>Recycle</title>
    <desc>Created with Sketch.</desc>
    <defs></defs>
    <g id="Page-1" stroke="none" stroke-width="1" fill="none" fill-rule="evenodd">
        <g id="SVG-Icon" transform="translate(-163.000000, -42.000000)" fill="#FFFFFF">
            <g id="Recycle" transform="translate(161.000000, 40.000000)">
                <path d="M12,21.5 L12,21.5 C17.2467051,21.5 21.5,17.2467051 21.5,12 C21.5,6.75329488 17.2467051,2.5 12,2.5 C6.75329488,2.5 2.5,6.75329488 2.5,12 C2.5,17.2467051 6.75329488,21.5 12,21.5 L12,21.5 Z M12.367136,7.72015022 C10.5208581,7.57400734 8.73685168,8.73418492 8.12784133,10.608526 C7.41763239,12.7943244 8.57105345,15.133627 10.7124292,15.8294022 C12.5940749,16.4407859 14.6397867,15.5778506 15.5786409,13.8160921 C15.7085095,13.5723939 15.6162324,13.2695583 15.3725342,13.1396898 C15.1288361,13.0098212 14.8260005,13.1020983 14.696132,13.3457965 C13.982299,14.6853029 12.4354786,15.3377926 11.0214462,14.8783456 C9.41100757,14.3550824 8.5375607,12.5836074 9.07889784,10.917543 C9.56218891,9.43012608 11.007147,8.53755066 12.4574215,8.73557862 C12.0949884,9.09506626 11.657825,9.52867702 11.657825,9.52867702 C11.4883691,9.69675577 11.4872527,9.97038164 11.6553314,10.1398375 C11.8234102,10.3092934 12.0970361,10.3104098 12.2664919,10.142331 L13.8493907,8.57229607 C14.021247,8.40183637 14.0196003,8.12347725 13.8457392,7.95506281 L12.2628404,6.42175264 C12.0914077,6.25569059 11.8178142,6.26004431 11.6517522,6.43147696 C11.4856901,6.6029096 11.4900439,6.87650311 11.6614765,7.04256516 C11.6614765,7.04256516 12.0277326,7.39424984 12.3671355,7.72014971 Z M12,22 C6.4771525,22 2,17.5228475 2,12 C2,6.4771525 6.4771525,2 12,2 C17.5228475,2 22,6.4771525 22,12 C22,17.5228475 17.5228475,22 12,22 Z"></path>
            </g>
        </g>
    </g>
</svg>