<?xml version="1.0" encoding="UTF-8" standalone="no"?>
<svg width="14px" height="13px" viewBox="0 0 14 13" version="1.1" xmlns="http://www.w3.org/2000/svg" xmlns:xlink="http://www.w3.org/1999/xlink">
    <!-- Generator: Sketch 39.1 (31720) - http://www.bohemiancoding.com/sketch -->
    <title>Replace</title>
    <desc>Created with Sketch.</desc>
    <defs></defs>
    <g id="Page-1" stroke="none" stroke-width="1" fill="none" fill-rule="evenodd">
        <g id="SVG-Icon" transform="translate(-132.000000, -223.000000)" fill="#FFFFFF">
            <g id="Replace" transform="translate(127.000000, 217.000000)">
                <path d="M8.96064128,14.8283867 C8.73948165,14.8283867 8.55822206,14.6476233 8.55822206,14.4316147 L8.55822206,7.59436186 C8.55822206,7.3761582 8.73783507,7.19758978 8.96053005,7.19758978 L17.399073,7.19758978 C17.6201871,7.19758978 17.8014834,7.37838616 17.8015118,7.59444054 L17.8024102,14.4316934 C17.8024389,14.6498512 17.6228624,14.8283867 17.4001218,14.8283867 L8.96064128,14.8283867 L8.96064128,14.8283867 Z M8.96064128,16.0259765 L17.4001218,16.0259765 C18.2827459,16.0259765 19.0001158,15.3127648 19,14.431536 L18.9991016,7.59428317 C18.9989862,6.71617372 18.2808324,6 17.399073,6 L8.96053005,6 C8.07798314,6 7.36063228,6.7131789 7.36063228,7.59436186 L7.36063228,14.4316147 C7.36063228,15.3097699 8.07880482,16.0259765 8.96064128,16.0259765 Z M5,9.67609387 L5,16.6649986 C5,17.545274 5.71206343,18.2588211 6.59237282,18.2588211 L16.5767019,18.2588211 L16.5767019,17.0612313 L6.59237282,17.0612313 C6.37403265,17.0612313 6.19758978,16.8844208 6.19758978,16.6649986 L6.19758978,9.67609387 L5,9.67609387 Z"></path>
            </g>
        </g>
    </g>
</svg>