<?xml version="1.0" encoding="UTF-8" standalone="no"?>
<svg width="12px" height="12px" viewBox="0 0 12 12" version="1.1" xmlns="http://www.w3.org/2000/svg" xmlns:xlink="http://www.w3.org/1999/xlink">
    <!-- Generator: Sketch 39.1 (31720) - http://www.bohemiancoding.com/sketch -->
    <title>ScaleDown</title>
    <desc>Created with Sketch.</desc>
    <defs></defs>
    <g id="Page-1" stroke="none" stroke-width="1" fill="none" fill-rule="evenodd">
        <g id="SVG-Icon" transform="translate(-269.000000, -223.000000)" fill="#FFFFFF">
            <g id="ScaleDown" transform="translate(263.000000, 217.000000)">
                <path d="M17.8137931,7.05517241 L14.7310345,10.137931 L15.7241379,10.137931 C16.0758621,10.137931 16.3448276,10.4068966 16.3448276,10.7586207 C16.3448276,11.1103448 16.0758621,11.3793103 15.7241379,11.3793103 L13.2413793,11.3793103 C12.8896552,11.3793103 12.6206897,11.1103448 12.6206897,10.7586207 L12.6206897,8.27586207 C12.6206897,7.92413793 12.8896552,7.65517241 13.2413793,7.65517241 C13.5931034,7.65517241 13.862069,7.92413793 13.862069,8.27586207 L13.862069,9.26896552 L16.9448276,6.1862069 C17.0482759,6.08275862 17.2137931,6 17.3793103,6 C17.7310345,6 18,6.26896552 18,6.62068966 C18,6.7862069 17.937931,6.95172414 17.8137931,7.05517241 L17.8137931,7.05517241 Z M10.7586207,16.3448276 C10.4068966,16.3448276 10.137931,16.0758621 10.137931,15.7241379 L10.137931,14.7310345 L7.05517241,17.8137931 C6.95172414,17.9172414 6.7862069,18 6.62068966,18 C6.26896552,18 6,17.7310345 6,17.3793103 C6,17.2137931 6.06206897,17.0482759 6.1862069,16.9448276 L9.26896552,13.862069 L8.27586207,13.862069 C7.92413793,13.862069 7.65517241,13.5931034 7.65517241,13.2413793 C7.65517241,12.8896552 7.92413793,12.6206897 8.27586207,12.6206897 L10.7586207,12.6206897 C11.1103448,12.6206897 11.3793103,12.8896552 11.3793103,13.2413793 L11.3793103,15.7241379 C11.3793103,16.0758621 11.1103448,16.3448276 10.7586207,16.3448276 L10.7586207,16.3448276 Z" id="RESIZE_2_7_"></path>
            </g>
        </g>
    </g>
</svg>