<?xml version="1.0" encoding="UTF-8" standalone="no"?>
<svg width="17px" height="16px" viewBox="0 0 17 16" version="1.1" xmlns="http://www.w3.org/2000/svg" xmlns:xlink="http://www.w3.org/1999/xlink">
    <!-- Generator: Sketch 39.1 (31720) - http://www.bohemiancoding.com/sketch -->
    <title>Share2</title>
    <desc>Created with Sketch.</desc>
    <defs></defs>
    <g id="Page-1" stroke="none" stroke-width="1" fill="none" fill-rule="evenodd">
        <g id="SVG-Icon" transform="translate(-302.000000, -112.000000)" fill="#FFFFFF">
            <g id="Share2" transform="translate(298.000000, 108.000000)">
                <path d="M15.1571289,4.18955459 C15.0299688,4.06319651 14.8794648,4 14.7054766,4 C14.5314883,4 14.3808789,4.06319651 14.2538242,4.18955459 C14.1266641,4.31598253 14.0629961,4.46560699 14.0629961,4.63846288 L14.0629961,7.19179039 L13.8146484,7.19179039 C9.04338281,7.19179039 6.11599219,8.53166812 5.03180859,11.2113537 C4.67725781,12.1022533 4.5,13.2095022 4.5,14.5327162 C4.5,15.6364367 4.92493359,17.1358253 5.77473047,19.030952 C5.79476953,19.0775895 5.82978516,19.1572052 5.88005859,19.2702183 C5.93029687,19.3831616 5.97540234,19.4828996 6.01555078,19.5694323 C6.05583984,19.6557555 6.09936328,19.7289083 6.14615625,19.7886812 C6.22638281,19.9017642 6.32010937,19.9584279 6.42719531,19.9584279 C6.52756641,19.9584279 6.60621094,19.9252052 6.66312891,19.8587249 C6.71990625,19.7922795 6.74834766,19.7090655 6.74834766,19.6095721 C6.74834766,19.5495546 6.73998047,19.4615895 6.72321094,19.3451528 C6.70647656,19.2287162 6.69807422,19.1507773 6.69807422,19.1108122 C6.66457031,18.6588297 6.64783594,18.2495721 6.64783594,17.8841223 C6.64783594,17.2125764 6.70647656,16.6107948 6.82347656,16.0788821 C6.94065234,15.5468646 7.10289844,15.0864978 7.31039062,14.6974672 C7.51784766,14.3082969 7.78542188,13.9727511 8.11339453,13.690131 C8.44122656,13.4075109 8.79416016,13.176524 9.17223047,12.9969607 C9.55037109,12.8173624 9.99534375,12.6760524 10.5072539,12.5730306 C11.0191289,12.4699738 11.5343438,12.3984629 12.0530039,12.3585328 C12.5716641,12.3186026 13.1588437,12.2987598 13.8146484,12.2987598 L14.0629961,12.2987598 L14.0629961,14.8521572 C14.0629961,15.0250131 14.1265234,15.1746725 14.2535781,15.3009607 C14.3808437,15.427179 14.5313477,15.4904454 14.7052305,15.4904454 C14.8791836,15.4904454 15.029793,15.427179 15.1571289,15.3009607 L20.2961992,10.194131 C20.4233594,10.0677729 20.4868867,9.91821834 20.4868867,9.74532751 C20.4868516,9.57247162 20.4233594,9.42281223 20.2963047,9.29620961 L15.1571289,4.18955459 Z" id="Share"></path>
            </g>
        </g>
    </g>
</svg>