<?xml version="1.0" encoding="UTF-8" standalone="no"?>
<svg width="15px" height="18px" viewBox="0 0 15 18" version="1.1" xmlns="http://www.w3.org/2000/svg" xmlns:xlink="http://www.w3.org/1999/xlink">
    <!-- Generator: Sketch 39.1 (31720) - http://www.bohemiancoding.com/sketch -->
    <title>Waterfall</title>
    <desc>Created with Sketch.</desc>
    <defs></defs>
    <g id="Page-1" stroke="none" stroke-width="1" fill="none" fill-rule="evenodd">
        <g id="SVG-Icon" transform="translate(-98.000000, -180.000000)" fill="#FFFFFF">
            <g id="Waterfall" transform="translate(93.000000, 177.000000)">
                <path d="M15.5,15.1891896 C15.2057014,15.304644 14.9031461,15.4796095 14.5960136,15.719167 L15.332113,15.8559104 C15.0916794,15.4557456 14.5545232,14.903429 13.9263158,14.4702235 C13.9730496,14.3941655 14,14.304646 14,14.2088318 L14,11.2088318 C14,10.9326894 13.7761424,10.7088318 13.5,10.7088318 C13.2238576,10.7088318 13,10.9326894 13,11.2088318 L13,13.9658932 C12.9949558,13.9639243 12.9899119,13.961969 12.9848684,13.9600279 C12.4768067,13.7644875 11.9786515,13.6971366 11.5,13.7657233 L11.5,10.2088318 C11.5,9.93268941 11.2761424,9.70883179 11,9.70883179 C10.7238576,9.70883179 10.5,9.93268941 10.5,10.2088318 L10.5,14.1281889 C9.86376393,14.5113657 9.28137914,15.1830603 8.78078314,16.1658278 L9.58283676,16.0422108 C9.38967055,15.8457581 9.19413279,15.6777846 8.99789517,15.5385724 C8.99928814,15.5233637 9,15.5079579 9,15.4923859 L9,12.4923859 C9,12.2162435 8.77614237,11.9923859 8.5,11.9923859 C8.22385763,11.9923859 8,12.2162435 8,12.4923859 L8,15.0794975 C7.52651309,14.9800888 7.06580003,15.055233 6.64224326,15.3090429 C5.89140265,15.7589726 5.37991071,16.7232605 5.20709013,17.8836056 C5.1664105,18.1567352 5.35484843,18.4111278 5.62797803,18.4518075 C5.90110763,18.4924871 6.15550028,18.3040492 6.19617991,18.0309196 C6.32890851,17.1397584 6.69994559,16.4402624 7.15625618,16.1668253 C7.60647009,15.8970416 8.17342985,16.0351193 8.86979071,16.743328 C9.1092094,16.9868202 9.51685152,16.9239921 9.67184433,16.619711 C10.5513348,14.8930998 11.5235145,14.4690968 12.6256781,14.8932922 C13.3889337,15.1870504 14.2272753,15.9587391 14.4749365,16.3709333 C14.6295219,16.6282169 14.9743628,16.6922771 15.211036,16.5076766 C16.518822,15.4876286 17.5811337,16.1856479 18.0286711,18.1008597 C18.091506,18.3697582 18.360429,18.5368057 18.6293275,18.4739708 C18.8982259,18.411136 19.0652735,18.1422129 19.0024386,17.8733145 C18.608674,16.1882205 17.6735198,15.0978555 16.5,15.0206385 L16.5,11.2705383 C16.5,10.994396 16.2761424,10.7705383 16,10.7705383 C15.7238576,10.7705383 15.5,10.994396 15.5,11.2705383 L15.5,15.1891896 Z M5.67120361,20.5 L18.6668812,20.5 C18.9430236,20.5 19.1668812,20.2761424 19.1668812,20 C19.1668812,19.7238576 18.9430236,19.5 18.6668812,19.5 L5.67120361,19.5 C5.39506124,19.5 5.17120361,19.7238576 5.17120361,20 C5.17120361,20.2761424 5.39506124,20.5 5.67120361,20.5 Z M9,10.4923859 L9,7.49238586 C9,7.21624349 8.77614237,6.99238586 8.5,6.99238586 C8.22385763,6.99238586 8,7.21624349 8,7.49238586 L8,10.4923859 C8,10.7685282 8.22385763,10.9923859 8.5,10.9923859 C8.77614237,10.9923859 9,10.7685282 9,10.4923859 Z M9,5.49238586 L9,4 C9,3.72385763 8.77614237,3.5 8.5,3.5 C8.22385763,3.5 8,3.72385763 8,4 L8,5.49238586 C8,5.76852824 8.22385763,5.99238586 8.5,5.99238586 C8.77614237,5.99238586 9,5.76852824 9,5.49238586 Z M11.5,8.20883179 L11.5,4.20883179 C11.5,3.93268941 11.2761424,3.70883179 11,3.70883179 C10.7238576,3.70883179 10.5,3.93268941 10.5,4.20883179 L10.5,8.20883179 C10.5,8.48497416 10.7238576,8.70883179 11,8.70883179 C11.2761424,8.70883179 11.5,8.48497416 11.5,8.20883179 Z M14,9.20883179 L14,7.20883179 C14,6.93268941 13.7761424,6.70883179 13.5,6.70883179 C13.2238576,6.70883179 13,6.93268941 13,7.20883179 L13,9.20883179 C13,9.48497416 13.2238576,9.70883179 13.5,9.70883179 C13.7761424,9.70883179 14,9.48497416 14,9.20883179 Z M14,4.20883179 L14,4 C14,3.72385763 13.7761424,3.5 13.5,3.5 C13.2238576,3.5 13,3.72385763 13,4 L13,4.20883179 C13,4.48497416 13.2238576,4.70883179 13.5,4.70883179 C13.7761424,4.70883179 14,4.48497416 14,4.20883179 Z M16.5,9.27053833 L16.5,7.27053833 C16.5,6.99439596 16.2761424,6.77053833 16,6.77053833 C15.7238576,6.77053833 15.5,6.99439596 15.5,7.27053833 L15.5,9.27053833 C15.5,9.5466807 15.7238576,9.77053833 16,9.77053833 C16.2761424,9.77053833 16.5,9.5466807 16.5,9.27053833 Z M16.5,5.27053833 L16.5,4 C16.5,3.72385763 16.2761424,3.5 16,3.5 C15.7238576,3.5 15.5,3.72385763 15.5,4 L15.5,5.27053833 C15.5,5.5466807 15.7238576,5.77053833 16,5.77053833 C16.2761424,5.77053833 16.5,5.5466807 16.5,5.27053833 Z" id="Combined-Shape"></path>
            </g>
        </g>
    </g>
</svg>