<?xml version="1.0" encoding="UTF-8" standalone="no"?>
<svg width="15px" height="14px" viewBox="0 0 15 14" version="1.1" xmlns="http://www.w3.org/2000/svg" xmlns:xlink="http://www.w3.org/1999/xlink">
    <!-- Generator: Sketch 39.1 (31720) - http://www.bohemiancoding.com/sketch -->
    <title>Wind</title>
    <desc>Created with Sketch.</desc>
    <defs></defs>
    <g id="Page-1" stroke="none" stroke-width="1" fill="none" fill-rule="evenodd">
        <g id="SVG-Icon" transform="translate(-132.000000, -182.000000)" fill="#FFFFFF">
            <g id="Wind" transform="translate(127.000000, 177.000000)">
                <path d="M12.6756272,8.22150656 C12.6756272,7.32497559 13.4236816,6.58889008 14.3333333,6.58889008 C15.2585186,6.58889008 15.9910394,7.31550344 15.9910394,8.22150656 C15.9910394,9.11803754 15.242985,9.85412305 14.3333333,9.85412305 L5,9.85412305 L5,10.8541231 L14.3333333,10.8541231 C15.7916916,10.8541231 16.9910394,9.67396484 16.9910394,8.22150656 C16.9910394,6.761398 15.8089989,5.58889008 14.3333333,5.58889008 C12.874975,5.58889008 11.6756272,6.76904829 11.6756272,8.22150656 L12.6756272,8.22150656 Z M14.7365591,14.2078853 C14.7365591,15.5203869 15.7959687,16.5896057 17.1182796,16.5896057 C18.4230958,16.5896057 19.5,15.5127015 19.5,14.2078853 C19.5,12.8953837 18.4405905,11.8261649 17.1182796,11.8261649 L5,11.8261649 L5,12.8261649 L17.1182796,12.8261649 C17.8862321,12.8261649 18.5,13.4456159 18.5,14.2078853 C18.5,14.9604168 17.870811,15.5896057 17.1182796,15.5896057 C16.3503271,15.5896057 15.7365591,14.9701548 15.7365591,14.2078853 L14.7365591,14.2078853 Z M9.71863799,16.2150538 C9.71863799,17.5226255 10.7730775,18.5967742 12.0752688,18.5967742 C13.3849647,18.5967742 14.4318996,17.5400548 14.4318996,16.2150538 C14.4318996,14.907482 13.3774601,13.8333333 12.0752688,13.8333333 L5,13.8333333 L5,14.8333333 L12.0752688,14.8333333 C12.8209878,14.8333333 13.4318996,15.4556641 13.4318996,16.2150538 C13.4318996,16.9898417 12.8305869,17.5967742 12.0752688,17.5967742 C11.3295498,17.5967742 10.718638,16.9744434 10.718638,16.2150538 L9.71863799,16.2150538 Z" id="Combined-Shape"></path>
            </g>
        </g>
    </g>
</svg>