<?xml version="1.0" encoding="UTF-8" standalone="no"?>
<svg width="20px" height="20px" viewBox="0 0 20 20" version="1.1" xmlns="http://www.w3.org/2000/svg" xmlns:xlink="http://www.w3.org/1999/xlink">
    <!-- Generator: Sketch 39.1 (31720) - http://www.bohemiancoding.com/sketch -->
    <title>Wrong</title>
    <desc>Created with Sketch.</desc>
    <defs></defs>
    <g id="Page-1" stroke="none" stroke-width="1" fill="none" fill-rule="evenodd">
        <g id="SVG-Icon" transform="translate(-95.000000, -42.000000)" fill="#FFFFFF">
            <g id="Wrong" transform="translate(93.000000, 40.000000)">
                <path d="M12,21.5 L12,21.5 C17.2467051,21.5 21.5,17.2467051 21.5,12 C21.5,6.75329488 17.2467051,2.5 12,2.5 C6.75329488,2.5 2.5,6.75329488 2.5,12 C2.5,17.2467051 6.75329488,21.5 12,21.5 L12,21.5 Z M12,22 C6.4771525,22 2,17.5228475 2,12 C2,6.4771525 6.4771525,2 12,2 C17.5228475,2 22,6.4771525 22,12 C22,17.5228475 17.5228475,22 12,22 Z M15.3279412,9.475 L13.0529412,11.75 L15.3279412,14.025 C15.4235294,14.1205882 15.5,14.2735294 15.5,14.4264706 C15.5,14.7514706 15.2514706,15 14.9264706,15 C14.7735294,15 14.6205882,14.9426471 14.525,14.8279412 L12.25,12.5529412 L9.975,14.8279412 C9.87941176,14.9235294 9.72647059,15 9.57352941,15 C9.24852941,15 9,14.7514706 9,14.4264706 C9,14.2735294 9.05735294,14.1205882 9.17205882,14.025 L11.4470588,11.75 L9.17205882,9.475 C9.07647059,9.37941176 9,9.22647059 9,9.07352941 C9,8.74852941 9.24852941,8.5 9.57352941,8.5 C9.72647059,8.5 9.87941176,8.55735294 9.975,8.67205882 L12.25,10.9470588 L14.525,8.67205882 C14.6205882,8.57647059 14.7735294,8.5 14.9264706,8.5 C15.2514706,8.5 15.5,8.74852941 15.5,9.07352941 C15.5,9.22647059 15.4426471,9.37941176 15.3279412,9.475 Z"></path>
            </g>
        </g>
    </g>
</svg>