<?xml version="1.0" encoding="UTF-8" standalone="no"?>
<svg width="109px" height="30px" viewBox="0 0 109 30" version="1.1" xmlns="http://www.w3.org/2000/svg" xmlns:xlink="http://www.w3.org/1999/xlink">
    <!-- Generator: Sketch 39 (31667) - http://www.bohemiancoding.com/sketch -->
    <title>Logo</title>
    <desc>Created with Sketch.</desc>
    <defs></defs>
    <g id="Page-1" stroke="none" stroke-width="1" fill="none" fill-rule="evenodd">
        <g id="Top_Logo" fill="#464D5C">
            <path d="M73.8996342,12.0425 L65.5269366,12.0425 L65.4683018,11.812 L76.6645403,11.812 L76.6645403,12.0425 L73.8996342,12.0425 L73.8996342,26.0206 C73.8996342,26.4106 73.5814026,26.7286 73.1874971,26.7286 L68.0301411,26.7286 C69.9254983,26.9736 73.210049,27.3601 73.210049,29.5636 C75.1044038,29.5636 76.6644902,28.0621 76.6644902,25.8461 L76.6644902,12 L73.8996342,12 L73.8996342,12.0425 Z M61.1764728,14.2141778 L62.8816555,14.86715 L62.2126175,15.69415 L62.2126175,28.48215 L59.4567823,29.47165 L59.4567823,15.6306788 C57.777686,16.9174612 55.9546143,18.0441554 53.9960288,18.95925 C57.0941509,16.48325 60.3250783,12.62875 62.1016624,9.71525 C62.6519274,8.80275 63.0237823,8.05175 63.1190012,7.56175 L66.1740242,9.76375 L65.1326302,10.06825 C63.9415434,11.5429331 62.6206566,12.9381048 61.1764728,14.2141778 Z M103.858558,3.84375 L97.6034758,3.84375 L97.5433376,3.60675 L103.983539,3.60675 L105.003638,1.67235 L108.340308,3.75585 L107.537463,4.19335 L107.537463,25.84635 C107.537463,28.06185 105.976374,29.56335 104.089536,29.56335 C104.089536,27.35985 100.797468,26.97385 98.9106308,26.72835 L104.066483,26.72835 C104.46089,26.72835 104.781126,26.41035 104.781126,26.02085 L104.781126,3.84385 L103.858505,3.84385 Z M95.2022558,14.856 L95.2022558,9.44035 L92.5351244,8.09185 L92.5351244,23.23685 L95.2022558,22.18435 L95.2022558,15.0825 L98.605379,15.0825 L98.605379,22.46555 L101.28103,21.41355 L101.28103,9.87505 L102.045788,9.45605 L98.8514447,7.46205 L97.7589332,9.54055 L98.605379,9.54055 L98.605379,14.856 L95.2022558,14.856 Z M12.5210343,16.0205501 C13.6041555,15.2232221 17.2126189,12.574863 17.6552869,12.35425 C18.1970323,12.08725 19.3927811,11.80625 19.3927811,11.80625 L16.561773,9.19875 L15.0459679,10.9309 L6.31471659,10.9309 L6.37485484,11.1609 L15.3203278,11.1609 L12.4130385,15.9216007 C11.4232033,15.0404116 10.0287741,14.4798763 8.65700115,14.19705 C10.3283433,14.83805 11.1161544,16.18005 11.1161544,17.97455 L11.1161544,18.3435 L0,18.3435 L0.0601382488,18.5775 L11.1161544,18.5775 L11.1161544,25.89455 C11.1161544,26.27655 10.8044378,26.58705 10.4175484,26.58705 L5.30479493,26.58705 C7.16256567,26.83255 10.4020127,27.20705 10.4020127,29.37905 C12.2673007,29.37905 13.7978191,27.90455 13.7978191,25.72355 L13.7978191,18.87105 C13.7978191,17.6949849 13.2968956,16.7523899 12.5210343,16.0205501 Z M4.10148895,5.7334 C3.9396466,4.54980592 3.43114402,3.32989156 2.43018664,2.2217 C3.09922465,3.2257 3.32123502,4.1962 3.32123502,4.9707 C3.32123502,6.8577 1.6118053,7.7292 0.817980415,8.7297 C0.214092166,9.4927 0.408539171,10.1687 0.750324885,10.5242 C1.12117742,10.9057 1.88743894,10.9532 2.46727189,10.5432 C3.50014631,9.8082 4.16016359,8.3187 4.16016359,6.5987 C4.16016359,6.39181199 4.15022243,6.18259632 4.12950597,5.9719 L13.8947419,5.9719 L13.8947419,5.82325 L13.8947419,2.6796 L14.5562627,1.6721 L11.1298859,0.5461 L11.1298859,5.7334 L4.10148895,5.7334 Z M38.3404389,27.8257 L38.3404389,21.54005 L29.7649251,21.54005 L29.6982719,21.30955 L38.3404389,21.30955 L38.3404389,10.40115 L33.0723785,10.40115 L33.0723785,16.8247 L30.2854718,17.9257 L30.2854718,2.4652 L33.0723785,3.8747 L33.0723785,10.12995 L38.3404389,10.12995 L38.3404389,3.9245 L41.0962742,3.9245 L41.0962742,10.12995 L46.3648358,10.12995 L46.3648358,3.97805 L45.4803024,3.97805 L46.6239315,1.80605 L49.7746745,3.88905 L49.1577563,4.32605 L49.1577563,16.94655 L46.3648358,18.04805 L46.3648358,10.40115 L41.0962742,10.40115 L41.0962742,21.30955 L41.0964747,21.54005 L41.0962742,27.8257 L41.0964747,28.0552 L27.0907776,28.0552 L27.0306394,27.8257 L38.3404389,27.8257 Z M85.7662638,0 C87.7352903,0.0115 89.3038963,0.4125 90.4996452,0.95 C92.743303,1.9615 93.7240576,3.5175 93.8809182,4.319 C94.0367765,5.082 93.6503882,5.7865 92.9823525,5.916 C92.2907627,6.0495 91.6367592,5.591 91.4057281,4.746 C91.0574274,3.4365 90.7076233,2.3065 89.7198525,1.4575 C88.924023,0.775 87.7352903,0.26 85.7662638,0 Z M46.6240317,21.54005 L50.4433116,21.54005 L48.0202414,19.51655 L46.6240317,21.54005 Z M48.9345432,28.0552 L53.0515075,28.0552 L50.436496,25.8762 L48.9345432,28.0552 Z M21.2644839,18.57765 L25.7688387,18.57765 L22.9147776,16.19115 L21.2644839,18.57765 Z M20.7819245,5.9717 L22.1796377,4.0117 L25.3373969,6.8532 C25.3373969,6.8532 24.171216,7.1802 23.7241884,7.3992 C23.2941999,7.6097 19.1401503,10.4712 19.1401503,10.4712 L21.3547414,5.9717 L20.7819245,5.9717 Z M86.2273237,4.0928 L89.6451809,5.2193 L88.983159,6.2308 L88.983159,27.8783 L86.2273237,28.8703 L86.2273237,4.0928 Z M76.0721285,4.2893 L79.9781077,4.2893 L77.4969038,2.2218 L76.0721285,4.2893 Z M78.4491429,12.0425 L82.5555829,12.0425 L79.9480887,9.871 L78.4491429,12.0425 Z M62.7029948,1.05715 L65.6903623,3.41415 L64.7837782,3.63315 C61.9297172,6.46915 58.8701838,8.87415 54.6414626,10.31715 C56.9597921,8.82265 59.5983577,6.18765 61.1950282,3.78915 C61.9602874,2.64365 62.5701895,1.67915 62.7029948,1.05715 Z" id="Logo"></path>
        </g>
    </g>
</svg>